<svg width="152" height="152" viewBox="0 0 152 152" fill="none" xmlns="http://www.w3.org/2000/svg">
<rect width="152" height="152" fill="#181C25"/>
<path d="M30.08 74.56C29.4613 74.56 28.928 74.7733 28.48 75.2C28.0533 75.648 27.84 76.1813 27.84 76.8C27.84 77.4186 28.0533 77.9413 28.48 78.368C28.928 78.816 29.4613 79.04 30.08 79.04H34.496C34.0266 80.3626 33.216 81.44 32.064 82.272C30.912 83.104 29.6106 83.52 28.16 83.52C26.304 83.52 24.7253 82.8586 23.424 81.536C22.1013 80.2346 21.44 78.656 21.44 76.8C21.44 74.944 22.1013 73.3653 23.424 72.064C24.7253 70.7413 26.304 70.08 28.16 70.08C29.8026 70.08 31.2426 70.6026 32.48 71.648C32.9493 72.0533 33.4933 72.224 34.112 72.16C34.7306 72.1173 35.2426 71.8613 35.648 71.392C36.032 70.9226 36.2026 70.3786 36.16 69.76C36.096 69.1413 35.8293 68.6293 35.36 68.224C33.2906 66.4746 30.8906 65.6 28.16 65.6C25.0666 65.6 22.432 66.6986 20.256 68.896C18.0586 71.072 16.96 73.7066 16.96 76.8C16.96 79.8933 18.0586 82.528 20.256 84.704C22.432 86.9013 25.0666 88 28.16 88C31.2533 88 33.888 86.9013 36.064 84.704C38.2613 82.528 39.36 79.8933 39.36 76.8C39.36 76.1813 39.1466 75.648 38.72 75.2C38.272 74.7733 37.7386 74.56 37.12 74.56H30.08Z" fill="url(#paint0_linear)"/>
<path d="M52.4725 70.08C54.3285 70.08 55.9071 70.7413 57.2085 72.064C58.5311 73.3653 59.1925 74.944 59.1925 76.8C59.1925 78.656 58.5311 80.2346 57.2085 81.536C55.9071 82.8586 54.3285 83.52 52.4725 83.52C50.6165 83.52 49.0378 82.8586 47.7365 81.536C46.4138 80.2346 45.7525 78.656 45.7525 76.8C45.7525 74.944 46.4138 73.3653 47.7365 72.064C49.0378 70.7413 50.6165 70.08 52.4725 70.08ZM52.4725 88C55.5658 88 58.2005 86.9013 60.3765 84.704C62.5738 82.528 63.6725 79.8933 63.6725 76.8C63.6725 73.7066 62.5738 71.072 60.3765 68.896C58.2005 66.6986 55.5658 65.6 52.4725 65.6C49.3791 65.6 46.7445 66.6986 44.5685 68.896C42.3711 71.072 41.2725 73.7066 41.2725 76.8C41.2725 79.8933 42.3711 82.528 44.5685 84.704C46.7445 86.9013 49.3791 88 52.4725 88Z" fill="url(#paint1_linear)"/>
<path d="M71.345 70.08H76.145C78.001 70.08 79.5796 70.7413 80.881 72.064C82.2036 73.3653 82.865 74.944 82.865 76.8C82.865 78.656 82.2036 80.2346 80.881 81.536C79.5796 82.8586 78.001 83.52 76.145 83.52H71.345V70.08ZM66.865 85.76C66.865 86.3786 67.0783 86.9013 67.505 87.328C67.953 87.776 68.4863 88 69.105 88H76.145C79.2383 88 81.873 86.9013 84.049 84.704C86.2463 82.528 87.345 79.8933 87.345 76.8C87.345 73.7066 86.2463 71.072 84.049 68.896C81.873 66.6986 79.2383 65.6 76.145 65.6H69.105C68.4863 65.6 67.953 65.8133 67.505 66.24C67.0783 66.688 66.865 67.2213 66.865 67.84V85.76Z" fill="url(#paint2_linear)"/>
<path d="M96.9205 79.04L100.024 72.832L103.096 79.04H96.9205ZM102.008 66.816C101.624 66.0693 100.963 65.696 100.024 65.696C99.0645 65.696 98.3925 66.0693 98.0085 66.816L89.0485 84.736C88.7711 85.2906 88.7285 85.8666 88.9205 86.464C89.1125 87.04 89.4858 87.4666 90.0405 87.744C90.5951 88.0213 91.1711 88.064 91.7685 87.872C92.3445 87.68 92.7711 87.3066 93.0485 86.752L94.6805 83.52H105.336L106.968 86.752C107.374 87.584 108.046 88 108.984 88C109.326 88 109.656 87.9146 109.976 87.744C110.531 87.4666 110.904 87.04 111.096 86.464C111.288 85.8666 111.246 85.2906 110.968 84.736L102.008 66.816Z" fill="url(#paint3_linear)"/>
<path d="M123.879 70.08C125.735 70.08 127.313 70.7413 128.615 72.064C129.937 73.3653 130.599 74.944 130.599 76.8C130.599 78.656 129.937 80.2346 128.615 81.536C127.313 82.8586 125.735 83.52 123.879 83.52C122.023 83.52 120.444 82.8586 119.143 81.536C117.82 80.2346 117.159 78.656 117.159 76.8C117.159 74.944 117.82 73.3653 119.143 72.064C120.444 70.7413 122.023 70.08 123.879 70.08ZM123.879 88C126.972 88 129.607 86.9013 131.783 84.704C133.98 82.528 135.079 79.8933 135.079 76.8C135.079 73.7066 133.98 71.072 131.783 68.896C129.607 66.6986 126.972 65.6 123.879 65.6C120.785 65.6 118.151 66.6986 115.975 68.896C113.777 71.072 112.679 73.7066 112.679 76.8C112.679 79.8933 113.777 82.528 115.975 84.704C118.151 86.9013 120.785 88 123.879 88Z" fill="url(#paint4_linear)"/>
<defs>
<linearGradient id="paint0_linear" x1="16" y1="72.4545" x2="139.06" y2="91.124" gradientUnits="userSpaceOnUse">
<stop stop-color="#14D89D"/>
<stop offset="1" stop-color="#0AC4DD"/>
</linearGradient>
<linearGradient id="paint1_linear" x1="16" y1="72.4545" x2="139.06" y2="91.124" gradientUnits="userSpaceOnUse">
<stop stop-color="#14D89D"/>
<stop offset="1" stop-color="#0AC4DD"/>
</linearGradient>
<linearGradient id="paint2_linear" x1="16" y1="72.4545" x2="139.06" y2="91.124" gradientUnits="userSpaceOnUse">
<stop stop-color="#14D89D"/>
<stop offset="1" stop-color="#0AC4DD"/>
</linearGradient>
<linearGradient id="paint3_linear" x1="16" y1="72.4545" x2="139.06" y2="91.124" gradientUnits="userSpaceOnUse">
<stop stop-color="#14D89D"/>
<stop offset="1" stop-color="#0AC4DD"/>
</linearGradient>
<linearGradient id="paint4_linear" x1="16" y1="72.4545" x2="139.06" y2="91.124" gradientUnits="userSpaceOnUse">
<stop stop-color="#14D89D"/>
<stop offset="1" stop-color="#0AC4DD"/>
</linearGradient>
</defs>
</svg>
