<svg width="72" height="72" viewBox="0 0 72 72" fill="none" xmlns="http://www.w3.org/2000/svg">
<circle cx="36" cy="36" r="36" fill="white"/>
<circle cx="36" cy="36" r="36" fill="white"/>
<path fill-rule="evenodd" clip-rule="evenodd" d="M46.534 22.4282C48.2925 22.4282 49.7276 23.806 49.7567 25.5238L49.7571 25.5771V52.9996L46.3768 50.0954L44.4744 48.3834L42.4619 46.5644L43.2952 49.3922H25.4659C23.7074 49.3922 22.2724 48.0145 22.2433 46.2966L22.2428 46.2434V25.5771C22.2428 23.8523 23.6599 22.457 25.4116 22.4287L25.4659 22.4282H46.534ZM33.7517 29.7348L33.5944 29.5512L33.5049 29.5523C33.0759 29.5647 31.1688 29.7036 29.1764 31.1564L29.113 31.273C28.7463 31.9636 26.9124 35.6381 26.9124 40.0679L26.9451 40.1186C27.1676 40.4498 28.5458 42.294 31.7077 42.3914L32.1708 41.8391C32.354 41.6191 32.5669 41.3618 32.7611 41.1227C30.9283 40.5895 30.142 39.5154 30.0252 39.3426L30.0097 39.3189L30.0744 39.3609C30.1453 39.4056 30.2731 39.4833 30.4499 39.5788C30.4657 39.5941 30.4814 39.6094 30.5128 39.6247C30.56 39.6552 30.6072 39.6705 30.6543 39.7011C31.0474 39.9151 31.4405 40.0832 31.8021 40.2208C32.4467 40.4654 33.2171 40.7099 34.1133 40.8781C35.2588 41.086 36.5971 41.164 38.0563 40.9161L38.1854 40.8934C38.9243 40.7711 39.679 40.5571 40.4651 40.2361C41.0154 40.0374 41.6286 39.7469 42.2732 39.3342L42.2475 39.3723C42.097 39.5862 41.274 40.6462 39.4275 41.1532L39.6875 41.47C40.0846 41.9494 40.4651 42.3914 40.4651 42.3914C43.9398 42.2844 45.2762 40.0679 45.2762 40.0679C45.2762 35.1459 43.0122 31.1564 43.0122 31.1564C41.0651 29.7366 39.1994 29.5717 38.7152 29.5533L38.5942 29.5512L38.3741 29.7959C40.7443 30.5008 41.9894 31.4822 42.2409 31.6953L42.289 31.7372C40.6538 30.8659 39.0501 30.4379 37.5565 30.2698C36.4245 30.1475 35.3396 30.1781 34.3806 30.3004C34.2862 30.3004 34.2076 30.3157 34.1133 30.3309L34.0249 30.339C33.4285 30.398 32.1425 30.6114 30.5443 31.2939L30.3158 31.3975C30.0302 31.5289 29.8221 31.6322 29.7104 31.6889L29.6167 31.7372C29.6167 31.7372 30.8957 30.5537 33.6672 29.7588L33.7517 29.7348ZM33.1542 35.2529C34.0504 35.2529 34.7736 36.0172 34.7579 36.9496C34.7579 37.8821 34.0504 38.6464 33.1542 38.6464C32.2738 38.6464 31.5505 37.8821 31.5505 36.9496C31.5505 36.0172 32.258 35.2529 33.1542 35.2529ZM38.8929 35.2529C39.7891 35.2529 40.4966 36.0172 40.4966 36.9496C40.4966 37.8821 39.7891 38.6464 38.8929 38.6464C38.0124 38.6464 37.2892 37.8821 37.2892 36.9496C37.2892 36.0172 37.9967 35.2529 38.8929 35.2529Z" fill="#768AD4"/>
</svg>
