<svg width="72" height="72" viewBox="0 0 72 72" fill="none" xmlns="http://www.w3.org/2000/svg">
<circle cx="36" cy="36" r="36" fill="white"/>
<circle cx="36" cy="36" r="36" fill="white"/>
<path d="M46.7281 24.0781C46.7281 24.0781 49.5033 22.996 49.272 25.6241C49.1949 26.7062 48.5011 30.4937 47.9615 34.5904L46.1113 46.7259C46.1113 46.7259 45.9572 48.5037 44.5696 48.8129C43.1819 49.1221 41.1006 47.7308 40.7151 47.4216C40.4067 47.1897 34.9334 43.7113 33.0061 42.0108C32.4665 41.5471 31.8498 40.6195 33.0832 39.5373L41.1776 31.8078C42.1027 30.8802 43.0278 28.7159 39.1733 31.344L28.3808 38.6871C28.3808 38.6871 27.1473 39.4601 24.8347 38.7644L19.8239 37.2185C19.8239 37.2185 17.9737 36.0591 21.1344 34.8996C28.8433 31.2666 38.3253 27.5564 46.7281 24.0781Z" fill="#6DC6F8"/>
</svg>
