<svg width="72" height="72" viewBox="0 0 72 72" fill="none" xmlns="http://www.w3.org/2000/svg">
<circle cx="36" cy="36" r="36" fill="white"/>
<circle cx="36" cy="36" r="36" fill="white"/>
<path d="M53.2713 25.3676C52.0686 25.8903 50.7753 26.2441 49.4178 26.4028C50.8034 25.5894 51.8676 24.301 52.3679 22.7658C51.0715 23.5196 49.6361 24.0664 48.1077 24.361C46.8845 23.0832 45.1405 22.2854 43.2107 22.2854C39.5056 22.2854 36.5021 25.228 36.5021 28.8584C36.5021 29.3737 36.561 29.8756 36.676 30.3566C31.0999 30.0825 26.1571 27.4655 22.848 23.4888C22.2708 24.4597 21.9398 25.5886 21.9398 26.7934C21.9398 29.0735 23.1242 31.0856 24.9242 32.2642C23.8245 32.23 22.7899 31.9344 21.8858 31.4421C21.8851 31.4695 21.8851 31.497 21.8851 31.5251C21.8851 34.7098 24.1971 37.3664 27.2663 37.9703C26.7034 38.1205 26.1107 38.2012 25.4991 38.2012C25.0663 38.2012 24.6464 38.16 24.2368 38.0828C25.0902 40.6946 27.5677 42.5949 30.5035 42.6478C28.2078 44.4113 25.3152 45.4619 22.1716 45.4619C21.6299 45.4619 21.0959 45.4311 20.5714 45.3701C23.5405 47.2347 27.0665 48.3236 30.8556 48.3236C43.1948 48.3236 49.943 38.3073 49.943 29.6208C49.943 29.3354 49.9368 29.052 49.924 28.7699C51.235 27.8434 52.3721 26.6862 53.2713 25.3676Z" fill="#3FC6F0"/>
</svg>
