<?xml version="1.0" encoding="UTF-8"?>
<svg width="440px" height="440px" viewBox="0 0 440 440" version="1.1" xmlns="http://www.w3.org/2000/svg" xmlns:xlink="http://www.w3.org/1999/xlink">
    <title>p1</title>
    <defs>
        <radialGradient cx="50%" cy="69.9209889%" fx="50%" fy="69.9209889%" r="105.610651%" id="radialGradient-1">
            <stop stop-color="#344473" stop-opacity="0.32" offset="0%"></stop>
            <stop stop-color="#11182C" stop-opacity="0" offset="100%"></stop>
        </radialGradient>
        <radialGradient cx="66.9666271%" cy="33.146772%" fx="66.9666271%" fy="33.146772%" r="66.5660902%" id="radialGradient-2">
            <stop stop-color="#C1E9FF" stop-opacity="0.32" offset="0%"></stop>
            <stop stop-color="#11182C" stop-opacity="0.16" offset="100%"></stop>
        </radialGradient>
        <circle id="path-3" cx="215.000188" cy="72.0622711" r="4"></circle>
        <filter x="-75.0%" y="-75.0%" width="250.0%" height="250.0%" filterUnits="objectBoundingBox" id="filter-4">
            <feOffset dx="0" dy="0" in="SourceAlpha" result="shadowOffsetOuter1"></feOffset>
            <feGaussianBlur stdDeviation="2" in="shadowOffsetOuter1" result="shadowBlurOuter1"></feGaussianBlur>
            <feColorMatrix values="0 0 0 0 1   0 0 0 0 1   0 0 0 0 1  0 0 0 0.5 0" type="matrix" in="shadowBlurOuter1"></feColorMatrix>
        </filter>
        <radialGradient cx="50%" cy="5.40477804%" fx="50%" fy="5.40477804%" r="63.7519513%" gradientTransform="translate(0.500000,0.054048),scale(0.544304,1.000000),rotate(90.000000),scale(1.000000,2.333885),translate(-0.500000,-0.054048)" id="radialGradient-5">
            <stop stop-color="#58CCB6" stop-opacity="0" offset="0%"></stop>
            <stop stop-color="#58CCB6" stop-opacity="0" offset="43.6025592%"></stop>
            <stop stop-color="#00D193" offset="100%"></stop>
        </radialGradient>
        <radialGradient cx="53.4919829%" cy="0%" fx="53.4919829%" fy="0%" r="91.0455504%" gradientTransform="translate(0.534920,0.000000),scale(0.544304,1.000000),rotate(87.745999),scale(1.000000,2.225396),translate(-0.534920,-0.000000)" id="radialGradient-6">
            <stop stop-color="#58CCB6" stop-opacity="0" offset="0%"></stop>
            <stop stop-color="#58CCB6" stop-opacity="0.209550148" offset="29.0881909%"></stop>
            <stop stop-color="#00D193" offset="100%"></stop>
        </radialGradient>
    </defs>
    <g id="页面-1" stroke="none" stroke-width="1" fill="none" fill-rule="evenodd">
        <g id="画板" transform="translate(-465.000000, -1700.000000)">
            <g id="p1" transform="translate(465.000000, 1700.000000)">
                <g id="star" transform="translate(327.000000, 314.000000)">
                    <path d="M14.5229272,1.48148514 L18.2704572,10.0279675 L27.6393019,8.83110932 L18.1597078,18.5398998 L14.4254714,31.5026184 L10.7968619,22.9005424 L1.3643497,24.0636678 L10.9024327,14.3859175 L14.5229272,1.48148514 Z" id="Fill-4-Copy" stroke="#FFA937" opacity="0.512448132"></path>
                    <path d="M21.0317658,8.49424067 L24.3478799,16.1306538 L32.649167,15.0598257 L24.2346738,23.7618645 L20.9242661,35.3654831 L17.7138585,27.6805361 L9.35517329,28.7213062 L17.8218862,20.046779 L21.0317658,8.49424067 Z" id="Fill-4" stroke="#EDB66E" fill="#FFA937"></path>
                </g>
                <g id="star" transform="translate(160.000000, 54.000000)">
                    <path d="M10.5452461,1.48714171 L13.144921,7.44153253 L19.6433643,6.60777069 L13.0268275,13.4136168 L10.421445,22.4968778 L7.905513,16.5067244 L1.36025464,17.3173158 L8.01842785,10.5324009 L10.5452461,1.48714171 Z" id="Fill-4-Copy" stroke="#FFA937" opacity="0.512448132"></path>
                    <path d="M14.550958,6.50442637 L16.8620749,11.8675442 L22.6555281,11.1144534 L16.7425889,17.2765988 L14.4203258,25.479337 L12.1841194,20.0851243 L6.3479929,20.8174041 L12.2984275,14.6739143 L14.550958,6.50442637 Z" id="Fill-4" stroke="#EDB66E" fill="#FFA937"></path>
                </g>
                <g id="star" transform="translate(353.000000, 289.000000)">
                    <path d="M8.05898693,1.46665025 L9.94372476,5.71607178 L14.6284498,5.12440475 L9.82037267,9.99277274 L7.9191059,16.5176738 L6.09618376,12.2453149 L1.37528871,12.8208344 L6.21435727,7.96670145 L8.05898693,1.46665025 Z" id="Fill-4-Copy" stroke="#FFA937" opacity="0.512448132"></path>
                    <path d="M11.0647327,5.48714171 L12.6605396,9.1422364 L16.6433643,8.6312329 L12.5358822,12.8562364 L10.9179579,18.4968778 L9.37512561,14.8235662 L5.36025464,15.3207841 L9.49460437,11.1077349 L11.0647327,5.48714171 Z" id="Fill-4" stroke="#EDB66E" fill="#FFA937"></path>
                </g>
                <g id="ball" transform="translate(97.999812, 97.937729)">
                    <circle id="Oval" stroke="#00D193" stroke-width="2" fill="url(#radialGradient-1)" cx="128.000188" cy="128.062271" r="128"></circle>
                    <path d="M127.799326,-5.68434189e-14 C163.090755,-5.68434189e-14 195.041055,14.3050549 218.167326,37.4322637 C241.294535,60.5585348 255.59959,92.5088352 255.59959,127.799326 C255.59959,163.089817 241.294535,195.041055 218.167326,218.167326 C195.041055,241.295473 163.090755,255.59959 127.799326,255.59959 C92.5088352,255.59959 60.5585348,241.295473 37.4322637,218.167326 C14.3050549,195.041055 -7.10542736e-14,163.089817 -7.10542736e-14,127.799326 C-7.10542736e-14,92.5088352 14.3050549,60.5594725 37.4322637,37.4322637 C60.5585348,14.3050549 92.5088352,-5.68434189e-14 127.799326,-5.68434189e-14 Z M127.799138,1.39065201 C107.542318,1.39065201 88.397644,6.15712821 71.4256879,14.6276337 C72.9937582,15.6867985 75.0995974,14.7673084 77.1922201,13.6855002 L77.6568059,13.4431648 C77.734126,13.4025763 77.8113719,13.3619497 77.8885158,13.3213773 C79.7180249,12.3583297 81.495959,11.4224762 83.0554022,11.5687619 C84.7151824,11.7244249 86.2915048,10.5325714 87.7787429,9.40823443 C89.9683399,7.75220513 91.9928967,6.2218315 94.2518857,8.39361172 C96.6055853,10.6563516 102.00034,9.58171429 107.734552,8.43862271 C109.802245,8.02695971 111.91401,7.60591941 113.994831,7.323663 C119.340823,6.59879853 125.290714,8.34016117 129.774933,9.65298168 C131.942025,10.2868864 133.758406,10.8185788 134.937131,10.9029744 C136.202284,10.9936215 137.906997,10.4695352 139.658379,9.85330403 L140.36049,9.60313589 C140.477613,9.56103505 140.59471,9.51883435 140.711666,9.47668864 C143.633629,8.42268132 146.473073,7.39774359 147.972501,8.6327326 C148.186303,8.80902564 148.446992,9.01063736 148.720809,9.2225641 C149.606025,9.90804396 150.641278,10.7107399 151.390523,11.6634725 C152.845878,13.5145495 153.237849,15.8119853 149.689483,18.6007912 C145.660999,21.7665641 146.348355,25.810989 146.893175,29.0161465 C147.071344,30.0579634 147.234508,31.0172601 147.234508,31.8612161 C147.234508,34.1727179 145.204325,34.7869304 142.855314,35.4977289 C141.210538,35.9947253 139.387593,36.5461099 138.194801,37.7942271 C135.847666,40.2482637 133.857805,41.1128498 131.048369,42.3347106 C130.259739,42.6769817 129.40453,43.0483223 128.485556,43.4796777 C126.429116,44.443663 124.985952,45.5014212 123.608428,47.038359 C122.213087,48.5968645 120.864633,50.6701832 119.018245,53.6362198 C115.629292,59.0834872 114.59779,59.3479267 113.218391,58.4899048 C113.047725,58.3839414 112.877058,58.2582857 112.693263,58.1241905 L112.563856,58.0304176 C111.629878,57.3505641 109.58938,54.472674 108.383461,51.023707 C107.588267,48.7497143 107.14097,46.2075311 107.580765,43.8453919 C108.044941,41.3500952 108.920779,39.9791355 109.505922,39.0620366 C110.064809,38.1871355 110.240164,37.912381 108.623519,36.954022 C106.066333,35.4395897 105.4193,33.581011 104.686933,31.4758095 C104.347475,30.4996337 103.987388,29.4653187 103.390054,28.4000586 C102.451388,26.7224615 100.943519,27.1875751 99.2752996,27.7023883 C98.045937,28.0821685 96.741556,28.4844542 95.3977905,28.260337 C93.9274315,28.0155897 92.4823912,26.4795897 91.0195341,24.9267106 C89.1459516,22.9377875 87.2404864,20.9132308 85.7288674,22.1735385 C82.8134681,24.6031941 83.5589626,27.2532161 84.6917392,31.2826374 L84.7039297,31.3229597 C85.4325451,33.9167179 88.9809114,35.8531282 91.9703912,37.4857143 C93.5860982,38.3681172 95.0480176,39.1661245 95.9060396,39.9763223 C96.7696879,40.7921465 97.3717099,41.6904908 97.6455267,42.5775824 C97.8218198,43.1467839 97.8649553,43.7112967 97.7580542,44.2486154 C97.6492777,44.7962491 97.3876513,45.3091868 96.9600469,45.7630476 C96.4414828,46.3106813 95.6791092,46.7692308 94.6401055,47.0899341 C92.9296879,47.6188132 92.9137465,48.7525275 92.8987429,49.8590476 C92.8837392,50.978696 92.8687355,52.0777143 91.7303326,52.8607179 C90.2609114,53.870652 89.7235927,53.1401612 88.9312117,52.0627106 C88.3610725,51.2872088 87.6043253,50.2575824 85.9042227,49.9603223 C84.4657465,49.7071355 83.3207795,50.1638095 82.3811751,50.5389011 C80.7110799,51.2056264 79.5492337,51.6688645 78.4192703,49.1257436 C77.8932044,47.9423297 77.6944059,46.7551648 77.5143619,45.6739634 C77.1692777,43.6147106 76.9010872,42.0065055 74.0841495,42.2015531 C73.189556,42.264381 72.4975121,42.4322344 71.9676952,42.6732308 C71.3291018,42.9639267 70.9371311,43.3577729 70.7167648,43.7891282 C70.4935853,44.2232967 70.4354462,44.7118535 70.4673289,45.1760293 C70.5020249,45.6814652 70.6454974,46.155956 70.8077245,46.512293 C71.1490579,47.2643516 71.7482667,48.6681319 71.999578,50.1300513 C72.265893,51.6885568 72.1392996,53.3080147 70.9408821,54.351707 C69.9281348,55.2341099 68.9285158,54.9209084 67.5688088,54.4942418 C65.7439883,53.9231648 63.1511678,53.1110916 58.8995048,55.4122784 C55.6343326,57.1798974 55.3126916,58.9081319 56.0694388,60.3437949 C56.895578,61.9116777 58.9041934,63.2310623 60.0519736,63.9334212 C61.4332484,64.7773773 62.0202667,65.9467253 62.8754755,67.6533919 C63.6022154,69.1012454 64.5343179,70.9607619 66.3666403,73.3519707 C67.1233875,74.3393993 67.7291604,74.8795311 68.2111531,75.0811429 C68.4887209,75.198359 68.7043985,75.1758535 68.8694388,75.0539487 C69.0944938,74.887033 69.2801641,74.5560147 69.4330139,74.1218462 C69.8774974,72.8549744 69.9647062,70.866989 69.8803106,69.2475311 C69.7578849,66.9283885 71.0311188,65.5177111 72.4032686,64.1787937 L72.7338198,63.8584029 L72.7338198,63.8584029 C73.6312264,62.9910037 74.5276952,62.1264176 74.9618637,61.0620952 C75.3782154,60.0455971 75.2750652,58.8031062 75.18223,57.6684542 L75.18223,57.665641 C75.005937,55.517304 74.8559004,53.6924835 77.5171751,53.4411722 C79.8108601,53.2254945 81.0420982,54.4239121 82.3652337,55.7132894 C83.2073143,56.5328645 84.0915927,57.3936996 85.311578,57.8522491 C86.224926,58.1945201 87.0501275,58.2826667 87.7618637,58.3586227 C89.6785817,58.5630476 90.9135707,58.6952674 91.4837099,62.1704908 C91.8597392,64.4623004 94.2228161,66.8938315 96.3608381,69.0937436 C98.1978491,70.9842051 99.8782593,72.7124396 100.175519,74.2306227 C100.470904,75.7441172 100.545922,78.0621832 100.174582,79.8241758 C100.011417,80.5959267 99.761981,81.2748425 99.4037685,81.7615238 C98.9836659,82.331663 98.4322813,82.6504908 97.7233582,82.5904762 C97.3182593,82.5557802 96.8737758,82.3898022 96.3880322,82.0625348 C94.7788894,80.9785201 92.4720762,79.861685 90.5206623,79.525978 C89.8267429,79.4059487 89.1881495,79.3871941 88.6602081,79.5072234 C88.1885304,79.6150623 87.8040615,79.8391795 87.5527502,80.2123956 L87.5518125,80.2114579 C87.4036513,80.4327619 87.2967502,80.7103297 87.2367355,81.0544762 C86.9920735,82.4738568 87.8060377,83.3174254 88.7127181,84.1058292 L88.9865377,84.3412161 L88.9865377,84.3412161 L89.2529361,84.5696138 C90.4901965,85.6388954 91.604927,86.7817495 90.9388894,89.0739341 C89.7892337,93.0349011 87.283622,93.1811868 82.8115927,93.4428132 C82.2358271,93.4765714 81.6234901,93.5122051 80.9201934,93.5637802 C77.8303766,93.7897729 77.7337905,94.0532747 77.0633143,95.8884103 C76.6010139,97.1505934 75.9070945,99.05137 74.1629187,101.940513 C71.7585817,105.923985 69.2351531,108.899399 67.3024938,111.175267 C65.5395634,113.25515 64.2867575,114.732073 64.1460982,115.742945 C63.9988747,116.800703 63.3949773,118.385465 62.5453949,119.648586 C62.0624645,120.365949 61.4942007,120.992352 60.8734242,121.382447 C60.1841934,121.818491 59.434948,121.970403 58.6641348,121.672205 C58.2571604,121.516542 57.8558125,121.231473 57.4685304,120.794491 C56.262611,119.435722 55.2676806,118.695853 54.2605597,118.587077 C53.2590652,118.4783 52.1647355,118.988425 50.7506403,120.12589 C49.0767941,121.473407 47.5417319,121.630007 46.2457905,121.762227 C45.2049114,121.870066 44.3487648,121.956337 43.8330139,122.782476 C43.237556,123.734271 42.88497,125.447502 42.7827575,127.060396 C42.6796073,128.714549 42.8127648,130.205538 43.2000469,130.543121 C43.4982447,130.799121 45.0511238,130.514989 46.7324718,130.207414 C48.7007648,129.846388 50.8237832,129.457231 51.9499956,129.923282 C52.9392996,130.33307 53.3969114,131.601817 53.9070359,133.017788 C54.5484425,134.796659 55.2892484,136.851223 57.1825231,137.054711 C60.4129993,137.399795 61.1894388,138.814828 62.5182007,141.235106 C62.8314022,141.804308 63.1774242,142.434462 63.6097172,143.137758 C64.9028454,145.239209 66.6629626,144.657817 69.449893,143.737905 C70.6923839,143.328117 72.1205451,142.85644 73.8103326,142.504791 C79.5454828,141.302623 85.3894095,146.381363 89.4413363,149.90441 L89.9167648,150.317949 C91.7828454,151.934593 94.0352703,151.951473 96.2839443,151.966476 C98.6770286,151.984293 101.0673,152.001172 103.180941,153.760352 C104.68412,155.014095 105.588091,156.720762 106.464867,158.370227 L106.565714,158.560439 L106.565714,158.560439 L106.767415,158.938416 C108.114864,161.444487 109.55427,163.636491 113.274655,163.198593 C116.641102,162.802872 119.914714,163.582125 122.54223,165.017788 C125.405116,166.580982 127.513131,168.934681 128.170479,171.414974 C128.781878,173.726476 127.849776,176.096117 126.682303,179.060278 C125.44919,182.191355 123.943197,186.018227 123.806289,191.068835 C123.669679,196.116012 120.934886,198.596401 118.066985,200.614035 L117.646628,200.906239 C117.366138,201.099166 117.085525,201.288664 116.80708,201.476689 C114.435563,203.080205 112.2319,204.567443 111.857747,207.188396 C110.999186,213.203588 106.364273,217.289101 101.82069,220.984467 L101.202039,221.486107 C101.099146,221.569359 100.996391,221.652445 100.89382,221.735385 L100.257102,222.250198 C98.0187429,224.064703 96.731241,226.400586 95.5271971,228.585495 C94.1112264,231.156747 92.8040322,233.527326 90.2008967,234.792322 C89.8586256,234.956425 89.5135414,235.083956 89.1693949,235.172103 C87.3764571,235.633465 85.7138637,235.033319 84.277263,233.85178 C82.9016147,232.718066 81.737893,231.04422 80.8808088,229.280352 C80.3453656,228.17852 79.9262007,227.032615 79.6505084,225.958916 C79.2604132,224.440733 79.1328821,222.667487 78.9950359,220.735766 C78.7015267,216.651956 78.3555048,211.837656 75.351959,207.68633 C72.6850579,204.000117 72.736633,202.572894 72.822904,200.17137 C72.8847941,198.46189 72.9654388,196.227282 71.9508161,192.109714 C70.442948,185.991971 69.052296,184.306872 67.5631824,182.501744 C66.6967209,181.452425 65.7983766,180.363722 64.8250139,178.416059 C63.4859086,175.737848 63.6248509,171.123185 63.9238585,166.554452 L63.9875738,165.610503 C64.0092853,165.296505 64.0313258,164.983376 64.053263,164.671766 C64.3402081,160.574828 64.6093363,156.746081 63.8760322,154.882813 C62.7432557,152.007736 60.8134095,151.619516 58.3912557,151.131897 C57.3494388,150.921846 56.2222886,150.695853 55.0294974,150.272938 C52.1694242,149.257377 50.3333509,147.12967 48.0649846,144.501216 C46.9481495,143.208088 45.7244132,141.791179 44.2231092,140.333011 C41.9838125,138.160293 39.8926769,137.581714 37.920633,137.036894 C35.9523399,136.492073 34.0937612,135.979136 32.2661275,134.083048 C30.3109626,132.056615 30.5791531,130.202725 30.793893,128.720176 C30.9561201,127.59959 31.0770872,126.760322 29.4735707,126.399297 C26.455959,125.717568 26.0330432,124.63074 25.473219,123.192264 C25.2369114,122.584615 24.9724718,121.9057 24.3985817,121.169582 C23.5724425,120.106198 22.8635194,120.198095 22.1077099,120.296557 C21.2412484,120.409084 20.3297758,120.527238 19.1894974,119.671092 C17.4321934,118.35452 17.0261568,116.769758 16.3828747,114.260396 C16.1925158,113.520527 15.980589,112.694388 15.6842667,111.70696 C15.2744791,110.338813 14.4305231,109.34107 13.5424938,108.292689 C11.90897,106.362842 10.1357245,104.267956 10.2229333,99.473348 C10.2698198,96.8795897 10.4639297,95.1963663 10.614904,93.8751062 C10.8868454,91.5110916 11.0209407,90.34737 9.85534359,87.1844103 C9.60496996,86.50737 9.39023004,85.6934212 9.20549744,84.791326 C9.16798828,84.6103443 9.13235458,84.4256117 9.09765861,84.2371282 C4.11269158,97.8182564 1.39046447,112.491839 1.39046447,127.799326 C1.39046447,162.705348 15.5398564,194.308689 38.4148161,217.184586 C61.2907136,240.059546 92.8921788,254.209875 127.799138,254.209875 C162.707036,254.209875 194.309439,240.059546 217.184399,217.184586 C223.128662,211.238447 228.483095,204.705289 233.15486,197.675136 C232.854787,197.392879 232.565029,197.142505 232.299651,196.931516 C231.716384,196.467341 231.269087,196.189773 231.089043,196.099751 C230.141937,195.626198 230.542347,194.076132 231.002772,192.287883 C231.338479,190.987253 231.712633,189.537524 231.599168,188.525714 C231.481952,187.47452 230.898684,185.760352 230.101615,184.454095 C229.751842,183.880205 229.368311,183.397275 228.977278,183.103766 C228.667827,182.873084 228.363065,182.772747 228.085497,182.873084 C227.929834,182.92841 227.767607,183.04844 227.596003,183.240674 C226.221292,184.786989 225.78056,187.010344 225.261058,189.637861 C225.022875,190.840967 224.76875,192.125656 224.389908,193.51537 C223.688486,196.08756 221.993073,197.068425 219.941322,198.257465 C218.316237,199.198007 216.450157,200.279209 214.742552,202.458491 C213.254377,204.357392 212.240692,206.110945 211.308589,207.723839 C209.830728,210.282901 208.547915,212.50063 205.885703,214.497993 C204.812003,215.303502 203.793629,215.668278 202.861527,215.713289 C202.022259,215.755487 201.260823,215.540747 200.59316,215.160967 C199.942377,214.789626 199.381615,214.260747 198.931505,213.659663 C198.140062,212.604718 197.674948,211.31159 197.622435,210.257582 C197.565234,209.138872 196.697834,207.465963 195.798552,205.733978 C194.702347,203.621275 193.563944,201.427927 193.640838,199.726886 C193.698977,198.443136 194.260677,197.462271 194.823314,196.479531 L195.009771,196.151584 C195.687041,194.945993 196.257805,193.689709 195.533175,191.842462 C195.193717,190.977875 194.861761,190.355223 194.56075,189.78696 C193.562069,187.909626 192.874714,186.616498 192.976926,179.436308 C193.04538,174.639824 192.935666,170.082462 192.628091,166.303414 C192.34771,162.84507 191.903226,160.064703 191.28245,158.388044 C190.672926,156.74233 189.353541,153.845685 187.680633,151.548249 C186.861996,150.423912 185.965527,149.448674 185.039051,148.854154 C184.186655,148.309333 183.308941,148.093656 182.451856,148.411546 C182.211798,148.50063 181.969864,148.630974 181.724179,148.809143 C179.473629,150.44548 177.82979,151.573568 176.316296,151.789245 C174.708091,152.019927 173.360574,151.261304 171.835827,149.083897 C170.547915,147.244777 166.916047,146.344392 163.349392,145.551356 L162.637644,145.393934 L162.637644,145.393934 C159.160545,144.624996 155.888809,143.902945 154.724149,142.32756 C153.579182,140.77937 152.442655,138.038388 151.666215,135.412747 C150.848516,132.650198 150.427475,129.962667 150.798816,128.846769 C151.184223,127.692425 152.422025,126.268015 153.871754,124.600733 C155.114245,123.170696 156.517087,121.556864 157.623607,119.838007 C158.878289,117.885656 159.015197,116.783824 159.142728,115.762637 C159.258069,114.836161 159.36497,113.968762 160.135783,112.685949 C161.031835,111.192529 163.119343,110.964528 165.14325,110.839939 L165.627124,110.811429 L165.627124,110.811429 C167.329102,110.712029 168.891358,110.622007 169.107974,109.884952 C169.450245,108.723106 169.862845,107.489993 170.523944,106.409729 C171.210362,105.290081 172.154655,104.347663 173.542494,103.835663 C174.049805,103.649993 174.772794,103.288967 175.632692,102.8623 C179.005703,101.187516 184.384516,98.5131136 188.281717,100.406388 C190.248135,101.360996 192.082333,102.633495 193.80119,103.82441 C196.135197,105.44293 198.249776,106.908601 200.061468,107.127092 C201.573087,107.307136 202.059768,106.857026 202.616779,106.340337 C203.261937,105.743004 203.981175,105.076278 205.779739,104.869978 C207.665512,104.651487 209.370303,105.460747 211.059153,106.261568 C212.586714,106.986432 214.100208,107.703795 215.598699,107.524689 C217.215344,107.329641 218.551607,106.86359 219.473395,106.113407 C220.297659,105.441055 220.790904,104.529582 220.848105,103.371487 C220.917497,101.935824 218.22434,100.533919 216.071314,99.4123956 C214.786626,98.7437949 213.675417,98.1642784 213.254377,97.6035165 C212.691739,96.8533333 212.248193,95.8171429 212.033453,94.7584469 C211.831842,93.7663297 211.829029,92.7404542 212.115036,91.8861832 C212.608281,90.4045714 215.60245,90.2761026 218.051798,90.1710769 C218.938889,90.1335678 219.748149,90.0988718 220.285468,90.0097875 C221.095666,89.8738168 222.162801,89.0683077 222.753571,88.2121612 C222.939241,87.9411575 223.071461,87.672967 223.118347,87.4319707 C223.153043,87.2566154 223.13804,87.1037656 223.057395,86.9912381 C222.922362,86.8018168 222.603534,86.6574066 222.039959,86.593641 C220.461761,86.4154725 218.70727,85.7524982 217.059681,85.1298462 C215.025747,84.3618462 213.163417,83.6585495 212.308208,84.0852161 C211.514889,84.4818755 210.928809,85.4271062 210.466508,86.6930403 C209.974201,88.0414945 209.632867,89.7378462 209.337483,91.5345348 C209.081483,93.104293 208.0256,94.5952821 206.781234,95.7561905 C205.979475,96.5044982 205.094259,97.1215238 204.296252,97.5331868 C203.441043,97.9748571 202.653351,98.1905348 202.116032,98.1023883 C201.857219,98.0601905 201.639666,97.9532894 201.476501,97.7779341 C200.801336,97.0549451 200.662552,94.9141099 200.518142,92.65137 C200.422494,91.170696 200.324032,89.6337582 200.087725,88.5047326 C199.800779,87.1365861 198.073483,85.8640879 196.529043,85.1289084 C195.989849,84.8729084 195.479725,84.6863004 195.063373,84.5850256 C194.828003,84.5278242 194.640457,84.4978168 194.518552,84.4968791 C194.495109,84.9891868 194.652648,85.8865934 194.806435,86.76337 C194.978977,87.7461099 195.146831,88.7063443 195.073688,89.2624176 C195.007109,89.7622271 194.654523,90.7477802 194.17253,91.5570403 C193.911842,91.9968352 193.60708,92.3991209 193.277937,92.6710623 C192.862523,93.0142711 192.405849,93.1689963 191.923856,93.0067692 C191.74475,92.9467546 191.575021,92.8436044 191.41467,92.69263 C190.794831,92.1084249 189.326347,91.2822857 187.640311,90.6436923 C186.279666,90.1279414 184.797116,89.7425348 183.53212,89.7144029 C182.100208,89.6825201 180.594215,90.1307546 179.088223,91.1022418 C177.635681,92.039033 176.187827,93.4596923 174.808428,95.4026667 C173.580941,97.1327766 172.060882,98.4090256 170.605527,99.3026813 C168.429996,100.63707 166.335109,101.121875 165.539915,100.989656 C164.581556,100.830242 164.44371,100.167267 164.219593,99.0898168 C164.053615,98.2889963 163.824809,97.189978 163.056809,95.8968498 C162.712662,95.3210842 162.464164,94.7256264 162.303812,94.1367326 C162.004677,93.0395897 162.006552,91.9555751 162.26349,91.0347253 C162.532618,90.0744908 163.08119,89.2849231 163.862318,88.8198095 C164.098626,88.6791502 164.353688,88.5694359 164.626567,88.4953553 C165.540853,88.2459194 166.8593,88.4569084 168.234948,88.6772747 C170.288574,89.0064176 172.486611,89.3599414 172.894523,88.1052601 C173.267739,86.9556044 172.758552,86.4764249 172.287812,86.0338168 C171.696105,85.4768059 171.141908,84.9554286 171.424164,83.8264029 C171.482303,83.5938462 171.574201,83.2778315 171.675475,82.9261832 C172.249366,80.9494505 173.18897,77.7124103 171.344457,76.2664322 C170.503202,75.6071338 169.752594,76.2473386 169.130984,76.9559592 L168.956924,77.1592204 C168.900096,77.2268857 168.844472,77.2941081 168.790084,77.3598242 C168.438435,77.7855531 168.124296,78.1653333 167.784838,78.3547546 C167.263461,78.647326 166.812413,78.5826227 166.431695,77.903707 C166.101029,77.3124689 165.168648,76.7732308 164.183802,76.2729153 L163.727533,76.0447166 C163.651534,76.0071282 163.575725,75.9697582 163.500355,75.9326007 C162.236296,75.3108864 161.078201,74.7407473 160.819388,73.96337 C160.753747,73.7636337 160.607461,73.4701245 160.446171,73.1409817 C160.317703,72.8784176 160.176105,72.593348 160.033571,72.2642051 C159.403417,70.8060366 159.049893,69.14063 161.039754,68.2807326 C162.120955,67.8128059 163.128076,67.8128059 164.016105,67.8128059 L164.016105,67.8109304 C165.064486,67.8109304 165.902816,67.8109304 166.261029,66.736293 C166.563915,65.8276337 166.057541,65.4084689 165.468648,64.9189744 C164.713776,64.2935092 163.862318,63.5864615 163.715095,62.0373333 C163.588501,60.7207619 164.388384,59.1903883 165.448018,57.9647766 C166.035036,57.2858608 166.70645,56.6932161 167.344105,56.2806154 C168.0399,55.8295678 168.720692,55.5838828 169.258948,55.6467106 C169.589029,55.6860952 169.867534,55.8276923 170.078523,56.0902564 C170.786508,56.9754725 170.759314,59.4623297 170.733058,61.7278828 C170.714303,63.3839121 170.696486,64.9114725 170.923417,65.3184469 L171.05001,65.5472527 C171.957732,67.2032821 175.652384,73.9474286 178.029527,73.2994579 C179.651798,72.8568498 179.978127,70.7253919 180.287578,68.7036484 C180.459182,67.5830623 180.626098,66.4924835 181.010567,65.6269597 C181.76075,63.9371722 183.258303,64.0703297 184.665834,64.6957949 C185.673893,65.1440293 186.611622,65.847326 187.105805,66.2177289 C187.707827,66.6697143 191.777571,67.2923663 195.757292,66.8835165 C198.186948,66.6350183 200.542523,65.9889231 201.966933,64.6601612 C204.616955,62.1864322 203.961483,60.7592088 203.19067,59.0844249 C202.869966,58.3867546 202.530508,57.6525128 202.3439,56.7898022 C202.069146,55.5304322 201.270201,55.5257436 200.340911,55.5210549 C199.275651,55.5144908 198.088486,55.5079267 197.032604,54.3817143 C195.491915,52.7388416 196.602566,51.4046298 197.819489,50.1466492 L198.055666,49.9040586 L198.055666,49.9040586 C198.613615,49.3339194 199.155622,48.7778462 199.302845,48.2986667 C199.484765,47.7069597 199.328164,46.9755311 199.018714,46.3575678 C198.867739,46.0537436 198.678318,45.7799267 198.474831,45.5670623 C198.296662,45.3813919 198.115681,45.2501099 197.956267,45.2004103 C197.884062,45.1779048 197.822171,45.1760293 197.775285,45.1994725 C197.235153,45.4695385 195.690714,47.9301392 194.58982,50.4582564 C193.819007,52.2258755 193.292941,53.9850549 193.53675,54.960293 C193.861204,56.2590476 193.608018,58.3848791 192.955358,60.0971722 C192.652472,60.8942418 192.258626,61.6153553 191.792574,62.1395458 C191.272135,62.7256264 190.654171,63.0782125 189.955563,63.0585201 C189.513893,63.0463297 189.059095,62.8831648 188.601483,62.5343297 C187.102992,61.3921758 185.60075,61.3818608 184.091007,61.3706081 C182.916032,61.3612308 181.739182,61.3518535 180.503256,60.8820513 C179.032897,60.3222271 178.846289,59.6114286 179.160428,58.7852894 C179.297336,58.4252015 179.545834,58.0782418 179.807461,57.710652 C180.187241,57.1789597 180.606406,56.5928791 180.567959,56.0527473 C180.529512,55.5023004 180.271637,55.0409377 179.99782,54.54863 C179.4033,53.4786813 178.740325,52.2858901 179.389234,49.7812161 C179.881541,47.8832527 180.727373,46.5094799 182.015812,45.3457582 C183.273307,44.208293 184.938714,43.2893187 187.104867,42.2737582 C189.791461,41.0143883 189.903988,39.690315 190.051212,37.9395751 C190.123417,37.0806154 190.204999,36.130696 190.543519,35.0260513 C191.240252,32.7633114 193.24793,32.8430183 195.586626,33.5631941 C196.396823,33.81263 197.247344,34.1398974 198.090362,34.4652894 C199.103109,34.8563223 200.107417,35.2436044 200.992633,35.4724103 C202.57927,35.8840733 203.430728,35.2698608 204.063695,34.8131868 C205.0033,34.1352088 205.63064,33.6822857 206.718406,35.1329524 C207.358875,35.9862857 208.909878,36.4898462 210.48245,36.9999707 C212.491065,37.6516923 214.531563,38.3137289 215.266743,39.8675458 C215.928779,41.2628864 215.182347,42.0674579 214.005497,42.6244689 C213.43067,42.8964103 212.756442,43.0970842 212.123475,43.28463 C211.318904,43.5237509 210.592164,43.7394286 210.46182,43.9476044 C210.446816,43.9701099 210.433688,43.9944908 210.422435,44.0207473 C210.222699,44.4614799 210.275212,45.256674 210.513395,46.0434286 C210.749703,46.8320586 211.166054,47.5756777 211.690245,47.9029451 C211.731505,47.9282637 211.769952,47.9498315 211.804648,47.9676484 L211.826215,47.9760879 C212.104721,48.103619 212.54264,47.7932308 213.053703,47.4303297 C214.253996,46.5779341 215.739358,45.522989 218.029292,47.239033 C219.206142,48.1214359 220.123241,47.1930842 220.753395,46.0190476 C221.280399,45.0372454 221.62267,43.8913407 221.785834,43.2677509 C220.293908,41.6098462 218.760721,39.991326 217.184399,38.4150037 C194.309439,15.540044 162.707036,1.39065201 127.799138,1.39065201 Z M240.680191,110.076637 L240.527285,110.082813 C240.266596,110.103443 240.016223,110.171897 239.804296,110.282549 C239.605497,110.386637 239.437644,110.528234 239.326054,110.701714 C239.126318,111.009289 239.095373,111.446271 239.356999,111.999531 C239.863373,113.06948 239.891505,114.275399 239.918699,115.444747 C239.956208,117.047326 239.991842,118.56926 241.469703,119.173158 C242.475886,119.584821 243.361102,119.433846 244.167549,119.296 C245.715739,119.032498 247.023871,118.810256 248.495168,121.386198 C249.287549,122.771223 249.847373,124.074667 250.095871,125.214945 C250.280604,126.064527 250.292794,126.836278 250.099622,127.497377 C249.894259,128.201612 249.467593,128.767062 248.784926,129.15622 C248.456721,129.342828 248.070377,129.490051 247.622142,129.586637 C246.312135,129.871707 245.66979,130.661275 245.018069,131.461158 C244.211622,132.452337 243.392985,133.45852 241.509087,133.834549 C239.70771,134.195575 238.165146,133.840176 236.539124,132.838681 C234.986245,131.882198 233.365849,130.33307 231.346919,128.244747 C228.899556,125.716189 228.848627,124.560699 228.951173,123.346819 L228.971651,123.118183 C229.034479,122.434579 229.101996,121.696586 228.58812,120.528176 C227.822933,118.789626 226.613263,116.982623 225.563944,115.911736 C225.211358,115.552586 224.885966,115.285333 224.6159,115.146549 C224.480867,115.07622 224.39741,115.040586 224.385219,115.049026 C224.381468,115.052777 224.374904,115.065905 224.363651,115.090286 C224.097336,115.674491 223.695051,116.006447 223.297453,116.331839 L223.297453,116.331839 L223.155945,116.449053 C222.619268,116.902625 222.173454,117.435883 222.662611,119.111267 C222.822025,119.660777 222.967373,120.194344 223.103344,120.692278 C223.696926,122.861245 224.087021,124.291282 225.23949,125.06022 L225.23949,125.06022 L225.238552,125.061158 L225.419534,125.180249 C226.049688,125.598476 226.296311,125.761641 226.562626,126.222066 C226.712662,126.483692 226.843944,126.804396 227.057747,127.330462 L227.114778,127.471466 C227.370685,128.103389 227.743427,129.010336 228.343373,130.319941 C229.391754,132.615502 230.142875,134.053978 230.875241,135.160498 C231.595417,136.248264 232.308091,137.025641 233.282391,137.999004 C233.947241,138.663853 235.171915,138.495062 236.399402,138.326271 C238.454904,138.044015 240.517908,137.758945 241.247461,140.490549 C242.012648,143.361875 241.359988,143.823238 240.096867,144.720645 C239.508911,145.136996 238.754977,145.671502 237.982289,146.763018 C237.054875,148.072088 236.984545,149.623092 236.910464,151.261304 C236.812941,153.436835 236.707915,155.754901 234.772442,158.07578 C233.27864,159.869656 232.271519,160.638593 231.541029,161.19748 C230.721453,161.823883 230.301351,162.145524 229.900003,163.649641 C229.701204,164.394198 229.522098,164.880879 229.390816,165.235341 C229.26516,165.574799 229.195768,165.76422 229.213585,165.872996 C229.241717,166.052103 229.462084,166.345612 229.961893,167.006711 C230.105366,167.196132 230.271344,167.416498 230.543285,167.785963 C231.964882,169.712059 231.974259,171.245245 231.98645,173.351385 C231.993014,174.452278 232.000516,175.721026 232.23401,177.311414 C232.512516,179.205626 232.904486,179.711062 233.53464,179.619165 C233.992252,179.550711 234.603651,179.273143 235.348208,178.933685 C235.983988,178.643927 236.70979,178.311971 237.516237,178.02315 C239.539856,177.300161 239.96371,176.457143 240.439138,175.509099 C240.817981,174.754227 241.22308,173.944029 242.269585,173.071941 C242.776897,172.650901 243.428618,172.371458 244.170362,172.200791 C244.811768,172.055443 245.52538,171.989802 246.268999,171.984176 C251.402127,158.231443 254.20875,143.342183 254.20875,127.799326 C254.20875,123.809289 254.022142,119.864264 253.660179,115.968 C252.980325,115.33222 252.314538,114.95619 251.69001,114.79115 C250.931388,114.593289 250.226215,114.710505 249.633571,115.059341 C248.527051,115.709187 247.288311,115.421304 246.106772,114.702066 C244.507007,113.730579 242.997263,111.945143 242.179563,110.797363 C241.789468,110.25348 241.135871,110.035927 240.527285,110.082813 Z" id="Combined-Shape" fill="url(#radialGradient-2)"></path>
                    <g id="Oval-Copy-2">
                        <use fill="black" fill-opacity="1" filter="url(#filter-4)" xlink:href="#path-3"></use>
                        <use fill="#FFFFFF" fill-rule="evenodd" xlink:href="#path-3"></use>
                    </g>
                </g>
                <path d="M226,316 C324.42228,316 404.209302,272.571621 404.209302,219 C404.209302,165.428379 324.42228,122 226,122 C127.57772,122 47.7906977,165.428379 47.7906977,219 C47.7906977,272.571621 127.57772,316 226,316 Z" id="Oval" stroke="url(#radialGradient-5)" stroke-width="2" stroke-dasharray="2"></path>
                <path d="M226,326 C327.466268,326 409.72093,281.228475 409.72093,226 C409.72093,170.771525 327.466268,126 226,126 C124.533732,126 42.2790698,170.771525 42.2790698,226 C42.2790698,281.228475 124.533732,326 226,326 Z" id="Oval" stroke="url(#radialGradient-6)" stroke-width="2" stroke-dasharray="2" transform="translate(226.000000, 226.000000) rotate(-45.000000) translate(-226.000000, -226.000000) "></path>
                <path d="M98.2781643,248.752508 C199.066217,248.752508 280.771076,204.280243 280.771076,149.420923 C280.771076,122.781028 261.504166,98.5905153 230.1412,80.7525082" id="Path" stroke="#FFFFFF" stroke-width="2" transform="translate(189.524620, 164.752508) rotate(-135.000000) translate(-189.524620, -164.752508) "></path>
                <path d="M395.688705,118.968751 L401.500413,115.415476 C405.766322,113.546648 411.045472,113.546648 416.179612,116.52126 L416.335458,116.61207 C426.661102,122.694108 435.033779,137.49038 435.000512,149.595109 C434.983576,155.608451 432.895337,159.843419 429.531882,161.837637 L422.000413,165.446266 C425.363867,163.452252 427.963014,159.770658 427.979549,153.757316 C428.013218,141.652791 419.64074,126.856519 409.314896,120.774481 C404.22248,117.775114 399.714541,117.275617 396.32474,119.165371 L395.688705,119.694693 L395.688705,118.968751 Z" id="Path" fill="#FFB83F"></path>
                <path d="M429.000413,152.50076 C428.966047,164.573379 420.415437,169.459751 409.93866,163.393847 C399.461681,157.328146 390.966456,142.572746 391.000413,130.500127 C391.034779,118.427508 399.585389,113.539717 410.062368,119.605419 C420.539145,125.671323 429.034369,140.428345 429.000413,152.50076 Z" id="Path" fill="#FFCE69"></path>
                <path d="M399.000847,136.999844 L421.000413,149.962992 L421.000413,150.046375 C420.993654,152.884042 420.211839,155.124839 418.739847,156.526327 C416.570324,158.592242 413.277078,158.410665 409.951828,156.451464 C407.634411,155.085887 405.301488,152.856856 403.321405,149.920591 C400.566664,145.835827 398.991703,141.155615 399.000413,137.083024 L399.000847,136.999844 Z" id="Path" fill="#F05778"></path>
                <path d="M404.000413,132.345981 C403.9959,133.824251 402.8712,134.423771 401.492295,133.680948 C400.11339,132.938325 398.995954,131.130798 399.000413,129.652528 C399.004926,128.174257 400.129839,127.576133 401.50853,128.319155 C402.887435,129.061777 404.004872,130.867511 404.000413,132.345981 Z" id="Path" fill="#0F0F0F"></path>
                <path d="M422.000413,142.347059 C421.995901,143.82567 420.870043,144.423134 419.493045,143.680938 C418.114339,142.937945 416.995955,141.130998 417.000413,139.652187 C417.004924,138.173577 418.130782,137.576311 419.509275,138.319305 C420.886273,139.061501 422.004871,140.868448 422.000413,142.347059 Z" id="Path" fill="#0F0F0F"></path>
                <path d="M46.3051567,306.976304 L51.302065,304.425603 C55.4236402,302.059187 57.9794981,297.026437 58.000285,289.874154 C58.0442736,275.472662 47.8004842,257.94399 35.1211344,250.711241 C28.739818,247.072007 22.9599889,246.733686 18.7847424,249.131191 L15,251.303759" id="Path" fill="#217FB7"></path>
                <path d="M52,293.016818 C51.977594,301.346983 48.4639705,306.783492 43.0275884,308.453888 C39.1338631,309.651701 34.2314776,308.911928 28.9248863,305.909216 C22.1405336,302.066761 16.0496348,295.305205 11.8555365,287.660283 C8.19914306,280.991426 5.98157382,273.64823 6,266.983007 C6.04276093,252.674681 16.3833827,246.903729 29.0750729,254.092427 C41.766763,261.281125 52.0461977,278.708491 52,293.016818 Z" id="Path" fill="#51C7EB"></path>
                <path d="M26.8564716,286.221688 C20.5060076,282.579343 14.9613371,283.336028 12,287.489546 C16.1709493,295.195634 22.2282298,302.011289 28.9751368,305.884487 C34.2524387,308.911224 39.1167024,309.656915 43,308.449518 C40.6324054,299.534202 34.2985368,290.492466 26.8564716,286.221688 Z M26.8564716,262.236811 C21.85207,259.365808 17.7954437,261.663344 17.7954437,267.366874 C17.7954437,273.070405 21.85207,280.023473 26.8564716,282.896308 C31.8608732,285.769143 35.9156555,283.467944 35.9156555,277.766245 C35.9156555,272.064546 31.8590293,265.105982 26.8564716,262.236811 L26.8564716,262.236811 Z" id="Shape" fill="#FFFFFF"></path>
                <g id="编组" transform="translate(280.187888, 38.308331) scale(-1, 1) translate(-280.187888, -38.308331) translate(259.999661, 13.951319)">
                    <path d="M9.3549986,47.4802707 L5.23227173,44.7684701 C2.01289588,42.8823273 0.0166623857,38.8723413 0,33.1723637 C-0.0317456774,21.6987309 6.91928286,8.46053369 16.8247229,2.69557494 L17.1564069,2.50619218 C22.0092776,-0.216157948 26.043494,-0.733192944 29.9931145,1.01651266 C32.6261949,2.18298307 34.5404087,3.29180269 35.7357559,4.34297154" id="Path" fill="#089068"></path>
                    <path d="M40.3764543,15.2396616 C40.4081683,26.6389088 32.4565016,40.5222012 22.6150731,46.2501454 C12.7734064,51.9776095 4.76983498,47.3798459 4.73750135,35.9805987 C4.70578736,24.5811114 12.657454,10.697819 22.4988826,4.97011484 C32.3403112,-0.757349294 40.3443588,3.8401743 40.3764543,15.2396616 Z" id="Fill-5" fill="#00D193"></path>
                    <path d="M27.86778,20.076709 C27.8749307,17.2581009 26.6836685,16.3735826 24.1831831,17.2328754 L24.1933773,13.7848081 L21.6914355,15.0825904 L21.6826977,18.46644 C19.6700763,19.7608754 18.253086,21.4349486 17.5424064,23.3687971 L19.495319,23.8568003 C20.1521151,22.2645391 21.1860957,21.1646616 22.7632802,20.3460635 C24.4482317,19.4719606 25.3161928,19.7729933 25.3132802,21.1509431 C25.3103676,21.8415144 25.091921,22.5178525 24.6011443,23.1490093 L24.4380375,23.3583774 C24.1103676,23.7160884 23.8933773,23.8913157 22.1516297,25.2951501 C19.2127948,27.6339581 18.0681346,29.6663194 18.0593967,32.3627904 C18.0550278,34.1792298 18.6477462,35.2494388 19.8972608,35.3506876 C20.3312414,35.4400389 20.7666783,35.4010949 21.6360957,35.075774 L21.6273579,37.7081674 L24.1292996,36.4103851 L24.1365812,33.7155104 C25.6598821,32.612286 26.695319,31.2617831 27.2967753,29.6981425 L25.3992025,29.1800625 C24.7438627,30.5843195 23.9254161,31.510566 22.6759016,32.1578609 C21.3157074,32.8638531 20.5569695,32.5057193 20.5598821,31.3156335 C20.5642511,29.9987087 21.2181346,29.0343974 23.1768724,27.3927145 L24.210853,26.6059438 C25.4093967,25.6067524 25.8433773,25.1325115 26.4433773,24.3830886 C27.3695909,23.1523081 27.8632802,21.7053374 27.86778,20.076709 Z" id="Fill-1" fill="#FFFFFF"></path>
                </g>
                <g id="bitcoin" transform="translate(234.999661, 377.951319)">
                    <g id="编组" transform="translate(20.188227, 24.357012) scale(-1, 1) translate(-20.188227, -24.357012) ">
                        <path d="M9.3549986,47.4802707 L5.23227173,44.7684701 C2.01289588,42.8823273 0.0166623857,38.8723413 0,33.1723637 C-0.0317456774,21.6987309 6.91928286,8.46053369 16.8247229,2.69557494 L17.1564069,2.50619218 C22.0092776,-0.216157948 26.043494,-0.733192944 29.9931145,1.01651266 C32.6261949,2.18298307 34.5404087,3.29180269 35.7357559,4.34297154" id="Path" fill="#E75A3C"></path>
                        <path d="M40.3764543,15.2396616 C40.4081683,26.6389088 32.4565016,40.5222012 22.6150731,46.2501454 C12.7734064,51.9776095 4.76983498,47.3798459 4.73750135,35.9805987 C4.70578736,24.5811114 12.657454,10.697819 22.4988826,4.97011484 C32.3403112,-0.757349294 40.3443588,3.8401743 40.3764543,15.2396616 Z" id="Fill-5" fill="#FF7E63"></path>
                    </g>
                    <g id="比特币_bitcoin" transform="translate(11.500339, 11.733685)" fill="#FFFFFF" fill-rule="nonzero">
                        <path d="M2.8,5.66963298 L1.05,4.39215507 C0.470101013,3.96883613 0,3.02782358 0,2.2903447 C0,1.59624694 0.416421658,1.32982147 0.948877993,1.65380277 L1.05,1.72150782 L2.8,2.99898573 L2.8,0.773446351 C2.8,0.0359674765 3.27010101,-0.218709471 3.85,0.204609468 C4.39578728,0.603027293 4.84431407,1.46002493 4.8951934,2.1743105 L4.9,2.30641984 L4.9,4.53195921 L6.3,5.55394154 L6.3,3.32840216 C6.3,2.59092329 6.77010101,2.33624634 7.35,2.75956528 C7.89578728,3.1579831 8.34431407,4.01498074 8.3951934,4.72926631 L8.4,4.86137565 L8.4,7.08691502 L8.75,7.3424106 C10.876269,8.89456012 12.6,12.3449941 12.6,15.0490486 C12.6,16.0793434 12.3497572,16.8526456 11.9223526,17.3293639 C13.1569066,19.0454602 14,21.3016393 14,23.1927569 C14,25.8308589 12.359328,26.7840359 10.3048431,25.3876379 L10.15,25.2784922 L8.4,24.0010143 L8.4,26.2265536 C8.4,26.9640325 7.92989899,27.2187095 7.35,26.7953905 C6.80421272,26.3969727 6.35568593,25.5399751 6.3048066,24.8256895 L6.3,24.6935802 L6.3,22.4680408 L4.9,21.4460585 L4.9,23.6715978 C4.9,24.4090767 4.42989899,24.6637537 3.85,24.2404347 C3.30421272,23.8420169 2.85568593,22.9850193 2.8048066,22.2707337 L2.8,22.1386244 L2.8,19.913085 L1.05,18.6356071 L0.936574074,18.54674 C-0.312191358,17.4989229 -0.312191358,15.1128791 0.936574074,15.8882279 L1.05,15.9649598 L2.8,17.2424377 L2.8,5.66963298 Z M10.15,18.1567662 L4.9,14.3243325 L4.9,18.7754112 L10.15,22.6078449 C11.116471,23.3133566 11.9,22.8888802 11.9,21.6597835 C11.9,20.4798506 11.1778997,18.9872076 10.26506,18.2454925 L10.15,18.1567662 Z M8.75,10.0130579 L4.9,7.20260646 L4.9,11.6536852 L8.75,14.4641366 C9.67781217,15.1414278 10.437025,14.777322 10.4962775,13.6596837 L10.5,13.5160751 C10.5,12.3361423 9.77789969,10.8434993 8.86505996,10.1017842 L8.75,10.0130579 Z" id="形状"></path>
                    </g>
                </g>
            </g>
        </g>
    </g>
</svg>