<svg width="89" height="18" viewBox="0 0 89 18" fill="none" xmlns="http://www.w3.org/2000/svg">
<path d="M9.84 7.31998C9.376 7.31998 8.976 7.47998 8.64 7.79998C8.32 8.13598 8.16 8.53598 8.16 8.99998C8.16 9.46398 8.32 9.85598 8.64 10.176C8.976 10.512 9.376 10.68 9.84 10.68H13.152C12.8 11.672 12.192 12.48 11.328 13.104C10.464 13.728 9.488 14.04 8.4 14.04C7.008 14.04 5.824 13.544 4.848 12.552C3.856 11.576 3.36 10.392 3.36 8.99998C3.36 7.60798 3.856 6.42398 4.848 5.44798C5.824 4.45598 7.008 3.95998 8.4 3.95998C9.632 3.95998 10.712 4.35198 11.64 5.13598C11.992 5.43998 12.4 5.56798 12.864 5.51998C13.328 5.48798 13.712 5.29598 14.016 4.94398C14.304 4.59198 14.432 4.18398 14.4 3.71998C14.352 3.25598 14.152 2.87198 13.8 2.56798C12.248 1.25598 10.448 0.599976 8.4 0.599976C6.08 0.599976 4.104 1.42398 2.472 3.07198C0.824 4.70398 0 6.67998 0 8.99998C0 11.32 0.824 13.296 2.472 14.928C4.104 16.576 6.08 17.4 8.4 17.4C10.72 17.4 12.696 16.576 14.328 14.928C15.976 13.296 16.8 11.32 16.8 8.99998C16.8 8.53598 16.64 8.13598 16.32 7.79998C15.984 7.47998 15.584 7.31998 15.12 7.31998H9.84Z" fill="url(#paint0_linear_522:367)"/>
<path d="M26.6344 3.95998C28.0264 3.95998 29.2104 4.45598 30.1864 5.44798C31.1784 6.42398 31.6744 7.60798 31.6744 8.99998C31.6744 10.392 31.1784 11.576 30.1864 12.552C29.2104 13.544 28.0264 14.04 26.6344 14.04C25.2424 14.04 24.0584 13.544 23.0824 12.552C22.0904 11.576 21.5944 10.392 21.5944 8.99998C21.5944 7.60798 22.0904 6.42398 23.0824 5.44798C24.0584 4.45598 25.2424 3.95998 26.6344 3.95998ZM26.6344 17.4C28.9544 17.4 30.9304 16.576 32.5624 14.928C34.2104 13.296 35.0344 11.32 35.0344 8.99998C35.0344 6.67998 34.2104 4.70398 32.5624 3.07198C30.9304 1.42398 28.9544 0.599976 26.6344 0.599976C24.3144 0.599976 22.3384 1.42398 20.7064 3.07198C19.0584 4.70398 18.2344 6.67998 18.2344 8.99998C18.2344 11.32 19.0584 13.296 20.7064 14.928C22.3384 16.576 24.3144 17.4 26.6344 17.4Z" fill="url(#paint1_linear_522:367)"/>
<path d="M40.7887 3.95998H44.3887C45.7807 3.95998 46.9648 4.45598 47.9408 5.44798C48.9328 6.42398 49.4287 7.60798 49.4287 8.99998C49.4287 10.392 48.9328 11.576 47.9408 12.552C46.9648 13.544 45.7807 14.04 44.3887 14.04H40.7887V3.95998ZM37.4287 15.72C37.4287 16.184 37.5887 16.576 37.9087 16.896C38.2447 17.232 38.6447 17.4 39.1087 17.4H44.3887C46.7087 17.4 48.6847 16.576 50.3167 14.928C51.9647 13.296 52.7887 11.32 52.7887 8.99998C52.7887 6.67998 51.9647 4.70398 50.3167 3.07198C48.6847 1.42398 46.7087 0.599976 44.3887 0.599976H39.1087C38.6447 0.599976 38.2447 0.759976 37.9087 1.07998C37.5887 1.41598 37.4287 1.81598 37.4287 2.27998V15.72Z" fill="url(#paint2_linear_522:367)"/>
<path d="M59.9704 10.68L62.2984 6.02398L64.6024 10.68H59.9704ZM63.7864 1.51198C63.4984 0.951976 63.0024 0.671976 62.2984 0.671976C61.5784 0.671976 61.0744 0.951976 60.7864 1.51198L54.0664 14.952C53.8584 15.368 53.8264 15.8 53.9704 16.248C54.1144 16.68 54.3944 17 54.8104 17.208C55.2264 17.416 55.6584 17.448 56.1064 17.304C56.5384 17.16 56.8584 16.88 57.0664 16.464L58.2904 14.04H66.2824L67.5064 16.464C67.8104 17.088 68.3144 17.4 69.0184 17.4C69.2744 17.4 69.5224 17.336 69.7624 17.208C70.1784 17 70.4584 16.68 70.6024 16.248C70.7464 15.8 70.7144 15.368 70.5064 14.952L63.7864 1.51198Z" fill="url(#paint3_linear_522:367)"/>
<path d="M80.1891 3.95998C81.5811 3.95998 82.7651 4.45598 83.7411 5.44798C84.7331 6.42398 85.2291 7.60798 85.2291 8.99998C85.2291 10.392 84.7331 11.576 83.7411 12.552C82.7651 13.544 81.5811 14.04 80.1891 14.04C78.7971 14.04 77.6131 13.544 76.6371 12.552C75.6451 11.576 75.1491 10.392 75.1491 8.99998C75.1491 7.60798 75.6451 6.42398 76.6371 5.44798C77.6131 4.45598 78.7971 3.95998 80.1891 3.95998ZM80.1891 17.4C82.5091 17.4 84.4851 16.576 86.1171 14.928C87.7651 13.296 88.5891 11.32 88.5891 8.99998C88.5891 6.67998 87.7651 4.70398 86.1171 3.07198C84.4851 1.42398 82.5091 0.599976 80.1891 0.599976C77.8691 0.599976 75.8931 1.42398 74.2611 3.07198C72.6131 4.70398 71.7891 6.67998 71.7891 8.99998C71.7891 11.32 72.6131 13.296 74.2611 14.928C75.8931 16.576 77.8691 17.4 80.1891 17.4Z" fill="url(#paint4_linear_522:367)"/>
<defs>
<linearGradient id="paint0_linear_522:367" x1="-0.71997" y1="4.85456" x2="92.7429" y2="15.5183" gradientUnits="userSpaceOnUse">
<stop stop-color="#14D89D"/>
<stop offset="1" stop-color="#0AC4DD"/>
</linearGradient>
<linearGradient id="paint1_linear_522:367" x1="-0.71997" y1="4.85456" x2="92.7429" y2="15.5183" gradientUnits="userSpaceOnUse">
<stop stop-color="#14D89D"/>
<stop offset="1" stop-color="#0AC4DD"/>
</linearGradient>
<linearGradient id="paint2_linear_522:367" x1="-0.71997" y1="4.85456" x2="92.7429" y2="15.5183" gradientUnits="userSpaceOnUse">
<stop stop-color="#14D89D"/>
<stop offset="1" stop-color="#0AC4DD"/>
</linearGradient>
<linearGradient id="paint3_linear_522:367" x1="-0.71997" y1="4.85456" x2="92.7429" y2="15.5183" gradientUnits="userSpaceOnUse">
<stop stop-color="#14D89D"/>
<stop offset="1" stop-color="#0AC4DD"/>
</linearGradient>
<linearGradient id="paint4_linear_522:367" x1="-0.71997" y1="4.85456" x2="92.7429" y2="15.5183" gradientUnits="userSpaceOnUse">
<stop stop-color="#14D89D"/>
<stop offset="1" stop-color="#0AC4DD"/>
</linearGradient>
</defs>
</svg>
