<svg width="188" height="140" viewBox="0 0 188 140" fill="none" xmlns="http://www.w3.org/2000/svg">
<path d="M40 40H148V118C148 122.418 144.418 126 140 126H48C43.5817 126 40 122.418 40 118V40Z" fill="#3A404F"/>
<path d="M40 32C40 27.5817 43.5817 24 48 24H140C144.418 24 148 27.5817 148 32V40H40V32Z" fill="#4D5364"/>
<circle cx="119" cy="32" r="3" fill="#838B9C"/>
<circle cx="129" cy="32" r="3" fill="#838B9C"/>
<circle cx="139" cy="32" r="3" fill="#838B9C"/>
<rect x="93.9203" y="66.7612" width="21.4385" height="21.4385" transform="rotate(45 93.9203 66.7612)" fill="url(#paint0_linear)"/>
<rect x="93" y="55" width="2" height="7" fill="url(#paint1_linear)"/>
<rect x="73" y="62.4141" width="2" height="14.8407" transform="rotate(-45 73 62.4141)" fill="url(#paint2_linear)"/>
<rect x="82" y="60.4141" width="2" height="6.55293" rx="1" transform="rotate(-45 82 60.4141)" fill="url(#paint3_linear)"/>
<rect width="2" height="6.55293" rx="1" transform="matrix(-0.707107 -0.707107 -0.707107 0.707107 108.048 60.4141)" fill="#29CD97"/>
<rect x="108.048" y="102.634" width="2" height="6.55293" rx="1" transform="rotate(135 108.048 102.634)" fill="url(#paint4_linear)"/>
<rect width="2" height="6.55293" rx="1" transform="matrix(0.707107 0.707107 0.707107 -0.707107 82 102.634)" fill="#29CD97"/>
<rect x="71" y="70.4141" width="2" height="6.55293" rx="1" transform="rotate(-45 71 70.4141)" fill="#29CD97"/>
<rect width="2" height="6.55293" rx="1" transform="matrix(-0.707107 -0.707107 -0.707107 0.707107 119.048 70.4141)" fill="url(#paint5_linear)"/>
<rect x="119.048" y="92.6338" width="2" height="6.55293" rx="1" transform="rotate(135 119.048 92.6338)" fill="#29CD97"/>
<rect width="2" height="6.55293" rx="1" transform="matrix(0.707107 0.707107 0.707107 -0.707107 71 92.6338)" fill="url(#paint6_linear)"/>
<rect width="2" height="14.8407" transform="matrix(-0.707107 -0.707107 -0.707107 0.707107 115.908 62.4141)" fill="url(#paint7_linear)"/>
<rect x="116.908" y="101.494" width="2" height="14.8407" transform="rotate(135 116.908 101.494)" fill="url(#paint8_linear)"/>
<rect width="2" height="14.8407" transform="matrix(0.707107 0.707107 0.707107 -0.707107 73.0918 101.494)" fill="url(#paint9_linear)"/>
<rect x="93" y="102" width="2" height="8" fill="url(#paint10_linear)"/>
<rect x="123" y="81" width="2" height="8" transform="rotate(90 123 81)" fill="url(#paint11_linear)"/>
<rect x="73" y="81" width="2" height="8" transform="rotate(90 73 81)" fill="url(#paint12_linear)"/>
<circle cx="63" cy="82" r="2" stroke="white" stroke-width="2"/>
<circle cx="125" cy="82" r="2" stroke="white" stroke-width="2"/>
<circle cx="94" cy="53" r="2" stroke="url(#paint13_linear)" stroke-width="2"/>
<circle cx="116" cy="61" r="2" stroke="white" stroke-width="2"/>
<circle r="2" transform="matrix(1 0 0 -1 117 102.908)" stroke="white" stroke-width="2"/>
<circle cx="73" cy="102.908" r="2" transform="rotate(-180 73 102.908)" stroke="white" stroke-width="2"/>
<circle cx="73" cy="61" r="2" stroke="white" stroke-width="2"/>
<circle cx="94" cy="111" r="2" stroke="white" stroke-width="2"/>
<rect x="93.9203" y="61.4142" width="29" height="29" transform="rotate(45 93.9203 61.4142)" stroke="url(#paint14_linear)" stroke-width="2"/>
<rect y="112" width="31" height="9.11912" rx="4.55956" transform="rotate(-38.1214 0 112)" fill="url(#paint15_linear)"/>
<rect x="147" y="72" width="31" height="9.11912" rx="4.55956" transform="rotate(-38.1214 147 72)" fill="url(#paint16_linear)"/>
<rect x="4" y="89" width="31" height="9.11912" rx="4.55956" transform="rotate(-38.1214 4 89)" fill="url(#paint17_linear)"/>
<rect x="150" y="49" width="31" height="9.11912" rx="4.55956" transform="rotate(-38.1214 150 49)" fill="url(#paint18_linear)"/>
<defs>
<linearGradient id="paint0_linear" x1="99.0952" y1="71.8234" x2="115.359" y2="88.0869" gradientUnits="userSpaceOnUse">
<stop stop-color="#29CD97"/>
<stop offset="1" stop-color="#29CD97" stop-opacity="0"/>
</linearGradient>
<linearGradient id="paint1_linear" x1="94" y1="50.5" x2="94" y2="61.5" gradientUnits="userSpaceOnUse">
<stop stop-color="white"/>
<stop offset="1" stop-color="white" stop-opacity="0"/>
</linearGradient>
<linearGradient id="paint2_linear" x1="74" y1="62.4141" x2="74" y2="77.2548" gradientUnits="userSpaceOnUse">
<stop stop-color="white"/>
<stop offset="1" stop-color="white" stop-opacity="0"/>
</linearGradient>
<linearGradient id="paint3_linear" x1="83" y1="60.4141" x2="83" y2="66.967" gradientUnits="userSpaceOnUse">
<stop stop-color="white"/>
<stop offset="1" stop-color="white" stop-opacity="0"/>
</linearGradient>
<linearGradient id="paint4_linear" x1="109.048" y1="102.634" x2="109.048" y2="109.187" gradientUnits="userSpaceOnUse">
<stop stop-color="white"/>
<stop offset="1" stop-color="white" stop-opacity="0"/>
</linearGradient>
<linearGradient id="paint5_linear" x1="1" y1="0" x2="1" y2="6.55293" gradientUnits="userSpaceOnUse">
<stop stop-color="white"/>
<stop offset="1" stop-color="white" stop-opacity="0"/>
</linearGradient>
<linearGradient id="paint6_linear" x1="1" y1="0" x2="1" y2="6.55293" gradientUnits="userSpaceOnUse">
<stop stop-color="white"/>
<stop offset="1" stop-color="white" stop-opacity="0"/>
</linearGradient>
<linearGradient id="paint7_linear" x1="1" y1="0" x2="1" y2="14.8407" gradientUnits="userSpaceOnUse">
<stop stop-color="white"/>
<stop offset="1" stop-color="white" stop-opacity="0"/>
</linearGradient>
<linearGradient id="paint8_linear" x1="117.908" y1="101.494" x2="117.908" y2="116.335" gradientUnits="userSpaceOnUse">
<stop stop-color="white"/>
<stop offset="1" stop-color="white" stop-opacity="0"/>
</linearGradient>
<linearGradient id="paint9_linear" x1="1" y1="0" x2="1" y2="14.8407" gradientUnits="userSpaceOnUse">
<stop stop-color="white"/>
<stop offset="1" stop-color="white" stop-opacity="0"/>
</linearGradient>
<linearGradient id="paint10_linear" x1="94" y1="102" x2="94" y2="110" gradientUnits="userSpaceOnUse">
<stop stop-color="white"/>
<stop offset="1" stop-color="white" stop-opacity="0"/>
</linearGradient>
<linearGradient id="paint11_linear" x1="124" y1="81" x2="124" y2="89" gradientUnits="userSpaceOnUse">
<stop stop-color="white"/>
<stop offset="1" stop-color="white" stop-opacity="0"/>
</linearGradient>
<linearGradient id="paint12_linear" x1="74" y1="81" x2="74" y2="89" gradientUnits="userSpaceOnUse">
<stop stop-color="white" stop-opacity="0"/>
<stop offset="1" stop-color="white"/>
</linearGradient>
<linearGradient id="paint13_linear" x1="94" y1="56" x2="94" y2="48" gradientUnits="userSpaceOnUse">
<stop stop-color="white"/>
<stop offset="1" stop-color="#3A404F"/>
</linearGradient>
<linearGradient id="paint14_linear" x1="126.857" y1="89.2886" x2="91.5018" y2="54.6403" gradientUnits="userSpaceOnUse">
<stop stop-color="white"/>
<stop offset="1" stop-color="#3A404F"/>
</linearGradient>
<linearGradient id="paint15_linear" x1="34.8825" y1="116.953" x2="-6.34266" y2="117.653" gradientUnits="userSpaceOnUse">
<stop stop-color="#535B6D"/>
<stop offset="1" stop-color="#262C3A" stop-opacity="0"/>
</linearGradient>
<linearGradient id="paint16_linear" x1="181.882" y1="76.9533" x2="140.657" y2="77.653" gradientUnits="userSpaceOnUse">
<stop stop-color="#535B6D"/>
<stop offset="1" stop-color="#262C3A" stop-opacity="0"/>
</linearGradient>
<linearGradient id="paint17_linear" x1="38.8825" y1="93.9533" x2="-2.34266" y2="94.653" gradientUnits="userSpaceOnUse">
<stop stop-color="#535B6D"/>
<stop offset="1" stop-color="#262C3A" stop-opacity="0"/>
</linearGradient>
<linearGradient id="paint18_linear" x1="184.882" y1="53.9533" x2="143.657" y2="54.653" gradientUnits="userSpaceOnUse">
<stop stop-color="#535B6D"/>
<stop offset="1" stop-color="#262C3A" stop-opacity="0"/>
</linearGradient>
</defs>
</svg>
