<svg width="518" height="59" viewBox="0 0 518 59" fill="none" xmlns="http://www.w3.org/2000/svg">
<g filter="url(#filter0_d)">
<path d="M40.7598 21.2363H22.5664L20.9844 28.6191H28.9824L28.8945 29C27.9277 33.1309 24.3242 36.0898 19.7832 36.0898C14.1289 36.0898 11.0527 32.1641 11.0527 26.041C11.0527 17.2227 15.5938 9.63477 23.2695 9.63477C27.752 9.63477 30.7402 12.2715 31.0039 15.9922H41.3457C41.375 15.7871 41.4043 15.4355 41.4043 15.1719C41.3457 7.55469 34.1387 0.992188 23.5332 0.992188C9.23633 0.992188 0.125 12.418 0.125 26.4805C0.125 37.4375 7.44922 44.7324 18.6699 44.7324C30.0664 44.7324 37.7129 38.1699 39.8516 26.2168L40.7598 21.2363ZM40.7891 44H50.8965L54.5 27.2129C55.4961 22.5254 58.25 20.2109 62.4102 20.2109C64.2266 20.2109 65.7207 20.6504 67.0098 21.2656L68.9434 12.4473C67.8008 11.9199 66.4824 11.627 64.7246 11.627C61.1504 11.627 58.2793 13.6777 56.7266 16.6367H56.5215L57.4297 12.0957H47.6152L40.7891 44ZM80.1055 37.4668C77.6445 37.4668 75.9453 36.2363 75.9453 34.3613C75.9453 32.2227 77.9375 30.8164 81.0137 30.6992L86.8145 30.5234L86.2871 32.8965C85.7305 35.5332 83.0938 37.4668 80.1055 37.4668ZM75.6523 44.4688C79.6367 44.4688 82.9473 42.7695 84.6465 40.2207H84.8516L84.0312 44H93.7871L98.1523 23.5508C98.2695 22.877 98.3867 21.793 98.3867 20.9434C98.3867 15.2305 92.9375 11.334 84.8223 11.334C76.8535 11.334 71.0234 15.4355 69.8223 21.8809H79.0801C79.666 19.918 81.4824 18.7754 84.1191 18.7754C86.8145 18.7754 88.543 19.9766 88.543 21.8223C88.543 22.1152 88.5137 22.3789 88.4258 22.877L88.0449 24.752L80.4863 24.9863C71.6387 25.25 66.2188 29.2637 66.2188 35.7969C66.2188 40.8066 70.3203 44.4688 75.6523 44.4688ZM98.8555 44H108.875L112.889 25.1914C113.65 21.6465 116.258 19.3027 119.393 19.3027C122.234 19.3027 124.227 21.0605 124.227 23.6387C124.227 24.3125 124.139 25.0156 123.963 25.9238L120.154 44H130.174L134.305 24.3418C134.598 22.9355 134.744 21.6172 134.744 20.4453C134.744 15.0254 130.789 11.334 125.018 11.334C120.682 11.334 116.756 13.3848 114.529 16.959H114.324L115.379 12.0957H105.652L98.8555 44ZM150.418 44.4102C152.059 44.4102 153.875 44.2637 154.783 44.0293L156.336 36.9395C155.926 37.0566 155.398 37.1152 154.227 37.1152C151.619 37.1152 150.447 36.3535 150.447 34.5371C150.447 34.0977 150.506 33.3945 150.623 32.8965L153.318 20.3281H159.676L161.258 12.8281H154.9L156.512 5.15234H146.463L144.822 12.8281H140.076L138.436 20.3281H143.211L140.311 34.0391C140.047 35.3867 139.988 36.5879 139.988 37.3789C139.988 42.0371 143.914 44.4102 150.418 44.4102ZM163.748 21.8223C163.748 26.2168 166.473 29.1172 172.391 31.0801L175.262 32.0469C178.367 33.1016 179.305 33.7754 179.305 35.0938C179.305 36.793 177.693 37.9062 175.115 37.9062C171.834 37.9062 169.725 36.2656 169.52 33.8926H159.939C160.203 40.4551 165.945 44.7617 174.822 44.7617C183.523 44.7617 189.295 40.4551 189.295 34.0098C189.295 29.7324 186.98 27.3008 180.945 25.2793L177.547 24.166C174.295 23.082 173.328 22.3496 173.328 20.9434C173.328 19.2734 174.969 18.1602 177.576 18.1602C180.33 18.1602 182.264 19.6836 182.41 21.8809H191.492C191.287 15.6699 185.691 11.3633 177.723 11.3633C169.256 11.3633 163.748 15.5234 163.748 21.8223ZM235.789 35.3574H217.566L219.412 26.7148H236.521L238.221 18.8047H221.111L222.898 10.3672H241.092L242.938 1.72461H213.992L204.998 44H233.973L235.789 35.3574ZM259.227 11.334C248.416 11.334 241.531 19.0977 241.531 30.9922C241.531 39.2832 247.068 44.7617 256.033 44.7617C264.383 44.7617 270.74 39.4883 271.824 31.8418H262.186C261.395 34.8301 259.314 36.6465 256.443 36.6465C253.514 36.6465 251.609 34.2734 251.609 30.582C251.609 23.9902 254.539 19.4492 258.758 19.4492C261.746 19.4492 263.533 21.4414 263.562 24.3125H273.201C273.201 24.1367 273.201 24.0488 273.201 23.0527C273.201 16.4902 267.518 11.334 259.227 11.334ZM290.896 36.9102C287.762 36.9102 285.74 34.2148 285.74 30.1719C285.74 23.873 289.021 19.1855 293.533 19.1855C296.639 19.1855 298.66 21.8809 298.66 25.9238C298.66 32.1348 295.32 36.9102 290.896 36.9102ZM293.973 11.334C283.25 11.334 275.516 19.3613 275.516 30.377C275.516 38.9902 281.521 44.7617 290.486 44.7617C301.209 44.7617 308.943 36.7344 308.943 25.7188C308.943 17.1348 302.938 11.334 293.973 11.334ZM314.451 21.8223C314.451 26.2168 317.176 29.1172 323.094 31.0801L325.965 32.0469C329.07 33.1016 330.008 33.7754 330.008 35.0938C330.008 36.793 328.396 37.9062 325.818 37.9062C322.537 37.9062 320.428 36.2656 320.223 33.8926H310.643C310.906 40.4551 316.648 44.7617 325.525 44.7617C334.227 44.7617 339.998 40.4551 339.998 34.0098C339.998 29.7324 337.684 27.3008 331.648 25.2793L328.25 24.166C324.998 23.082 324.031 22.3496 324.031 20.9434C324.031 19.2734 325.672 18.1602 328.279 18.1602C331.033 18.1602 332.967 19.6836 333.113 21.8809H342.195C341.99 15.6699 336.395 11.3633 328.426 11.3633C319.959 11.3633 314.451 15.5234 314.451 21.8223ZM342.752 55.6895C351.307 55.6895 356.609 52.6133 360.975 44.3809L378.172 12.0957H367.42L356.375 36.0605H356.17L355.32 12.0957H345.008L348.67 43.502C348.699 43.6191 348.465 44.3223 348.465 44.498C348.025 46.8711 346.209 47.8379 343.191 47.8379C342.898 47.8379 340.32 47.8086 340.145 47.75L338.533 55.5723C338.709 55.6309 342.43 55.6895 342.752 55.6895ZM378.201 21.8223C378.201 26.2168 380.926 29.1172 386.844 31.0801L389.715 32.0469C392.82 33.1016 393.758 33.7754 393.758 35.0938C393.758 36.793 392.146 37.9062 389.568 37.9062C386.287 37.9062 384.178 36.2656 383.973 33.8926H374.393C374.656 40.4551 380.398 44.7617 389.275 44.7617C397.977 44.7617 403.748 40.4551 403.748 34.0098C403.748 29.7324 401.434 27.3008 395.398 25.2793L392 24.166C388.748 23.082 387.781 22.3496 387.781 20.9434C387.781 19.2734 389.422 18.1602 392.029 18.1602C394.783 18.1602 396.717 19.6836 396.863 21.8809H405.945C405.74 15.6699 400.145 11.3633 392.176 11.3633C383.709 11.3633 378.201 15.5234 378.201 21.8223ZM421.004 44.4102C422.645 44.4102 424.461 44.2637 425.369 44.0293L426.922 36.9395C426.512 37.0566 425.984 37.1152 424.812 37.1152C422.205 37.1152 421.033 36.3535 421.033 34.5371C421.033 34.0977 421.092 33.3945 421.209 32.8965L423.904 20.3281H430.262L431.844 12.8281H425.486L427.098 5.15234H417.049L415.408 12.8281H410.662L409.021 20.3281H413.797L410.896 34.0391C410.633 35.3867 410.574 36.5879 410.574 37.3789C410.574 42.0371 414.5 44.4102 421.004 44.4102ZM442.156 24.459C443.035 21.002 445.73 18.541 449.158 18.541C452.498 18.541 454.461 20.7676 454.461 23.5508C454.461 23.873 454.432 24.2832 454.373 24.459H442.156ZM446.639 44.7324C454.783 44.7324 460.73 40.25 462.371 33.7168H452.967C452.205 35.9434 450.037 37.4375 447.107 37.4375C443.387 37.4375 441.131 34.8301 441.131 31.2266C441.131 30.9043 441.16 30.582 441.219 30.2598H463.221C463.572 28.707 463.719 26.6855 463.719 25.0449C463.719 16.7246 458.006 11.334 449.568 11.334C439.08 11.334 432.02 19.4492 432.02 30.2598C432.02 39.2246 437.615 44.7324 446.639 44.7324ZM464.539 44H474.559L478.631 24.8105C479.363 21.4121 481.59 19.3027 484.227 19.3027C486.629 19.3027 488.123 20.9727 488.123 23.3457C488.123 24.0488 488.035 24.7227 487.859 25.543L483.992 44H493.631L497.645 24.8105C498.377 21.3535 500.604 19.3027 503.24 19.3027C505.643 19.3027 507.137 20.9727 507.137 23.3457C507.137 24.0488 507.049 24.7227 506.873 25.543L503.006 44H513.025L517.215 24.1074C517.508 22.7305 517.654 21.4414 517.654 20.2695C517.654 15.0547 513.934 11.334 508.777 11.334C504.061 11.334 500.398 13.6777 498.113 17.0176H497.908C496.883 13.6484 493.836 11.334 489.793 11.334C485.779 11.334 482.088 13.6484 480.154 17.1641H479.949L481.062 12.0957H471.336L464.539 44Z" fill="white"/>
</g>
<defs>
<filter id="filter0_d" x="0.125" y="0.992188" width="517.529" height="57.6973" filterUnits="userSpaceOnUse" color-interpolation-filters="sRGB">
<feFlood flood-opacity="0" result="BackgroundImageFix"/>
<feColorMatrix in="SourceAlpha" type="matrix" values="0 0 0 0 0 0 0 0 0 0 0 0 0 0 0 0 0 0 127 0" result="hardAlpha"/>
<feOffset dy="3"/>
<feComposite in2="hardAlpha" operator="out"/>
<feColorMatrix type="matrix" values="0 0 0 0 0.0871875 0 0 0 0 0.675 0 0 0 0 0.481452 0 0 0 1 0"/>
<feBlend mode="normal" in2="BackgroundImageFix" result="effect1_dropShadow"/>
<feBlend mode="normal" in="SourceGraphic" in2="effect1_dropShadow" result="shape"/>
</filter>
</defs>
</svg>
