<svg width="371" height="47" viewBox="0 0 371 47" fill="none" xmlns="http://www.w3.org/2000/svg">
<g filter="url(#filter0_d)">
<path d="M28.4355 10.1582H28.6699L29.8418 25.9785H20.3496L28.4355 10.1582ZM30.9844 43H41.9121L37.0488 0.724609H23.8945L0.339844 43H11.707L16.4824 33.7129H30.2812L30.9844 43ZM44.9004 43H54.9199L58.9922 23.8105C59.7246 20.4121 61.9512 18.3027 64.5879 18.3027C66.9902 18.3027 68.4844 19.9727 68.4844 22.3457C68.4844 23.0488 68.3965 23.7227 68.2207 24.543L64.3535 43H73.9922L78.0059 23.8105C78.7383 20.3535 80.9648 18.3027 83.6016 18.3027C86.0039 18.3027 87.498 19.9727 87.498 22.3457C87.498 23.0488 87.4102 23.7227 87.2344 24.543L83.3672 43H93.3867L97.5762 23.1074C97.8691 21.7305 98.0156 20.4414 98.0156 19.2695C98.0156 14.0547 94.2949 10.334 89.1387 10.334C84.4219 10.334 80.7598 12.6777 78.4746 16.0176H78.2695C77.2441 12.6484 74.1973 10.334 70.1543 10.334C66.1406 10.334 62.4492 12.6484 60.5156 16.1641H60.3105L61.4238 11.0957H51.6973L44.9004 43ZM119.695 43.4688C128.807 43.4688 135.311 34.4453 135.311 23.1367C135.311 15.3438 131.092 10.627 124.412 10.627C120.281 10.627 116.678 12.5605 114.773 15.7539H114.51L117.762 0.724609H107.684L98.6602 43H108.445L109.705 37.1113H109.91C111.082 40.9199 114.949 43.4688 119.695 43.4688ZM117.234 35.4414C114.012 35.4414 111.902 32.9512 111.902 29.2891C111.902 23.4297 115.389 18.3906 119.695 18.3906C122.918 18.3906 124.91 20.8223 124.91 24.6602C124.91 30.6074 121.629 35.4414 117.234 35.4414ZM150.721 36.4668C148.26 36.4668 146.561 35.2363 146.561 33.3613C146.561 31.2227 148.553 29.8164 151.629 29.6992L157.43 29.5234L156.902 31.8965C156.346 34.5332 153.709 36.4668 150.721 36.4668ZM146.268 43.4688C150.252 43.4688 153.562 41.7695 155.262 39.2207H155.467L154.646 43H164.402L168.768 22.5508C168.885 21.877 169.002 20.793 169.002 19.9434C169.002 14.2305 163.553 10.334 155.438 10.334C147.469 10.334 141.639 14.4355 140.438 20.8809H149.695C150.281 18.918 152.098 17.7754 154.734 17.7754C157.43 17.7754 159.158 18.9766 159.158 20.8223C159.158 21.1152 159.129 21.3789 159.041 21.877L158.66 23.752L151.102 23.9863C142.254 24.25 136.834 28.2637 136.834 34.7969C136.834 39.8066 140.936 43.4688 146.268 43.4688ZM174.129 20.8223C174.129 25.2168 176.854 28.1172 182.771 30.0801L185.643 31.0469C188.748 32.1016 189.686 32.7754 189.686 34.0938C189.686 35.793 188.074 36.9062 185.496 36.9062C182.215 36.9062 180.105 35.2656 179.9 32.8926H170.32C170.584 39.4551 176.326 43.7617 185.203 43.7617C193.904 43.7617 199.676 39.4551 199.676 33.0098C199.676 28.7324 197.361 26.3008 191.326 24.2793L187.928 23.166C184.676 22.082 183.709 21.3496 183.709 19.9434C183.709 18.2734 185.35 17.1602 187.957 17.1602C190.711 17.1602 192.645 18.6836 192.791 20.8809H201.873C201.668 14.6699 196.072 10.3633 188.104 10.3633C179.637 10.3633 174.129 14.5234 174.129 20.8223ZM206.414 20.8223C206.414 25.2168 209.139 28.1172 215.057 30.0801L217.928 31.0469C221.033 32.1016 221.971 32.7754 221.971 34.0938C221.971 35.793 220.359 36.9062 217.781 36.9062C214.5 36.9062 212.391 35.2656 212.186 32.8926H202.605C202.869 39.4551 208.611 43.7617 217.488 43.7617C226.189 43.7617 231.961 39.4551 231.961 33.0098C231.961 28.7324 229.646 26.3008 223.611 24.2793L220.213 23.166C216.961 22.082 215.994 21.3496 215.994 19.9434C215.994 18.2734 217.635 17.1602 220.242 17.1602C222.996 17.1602 224.93 18.6836 225.076 20.8809H234.158C233.953 14.6699 228.357 10.3633 220.389 10.3633C211.922 10.3633 206.414 14.5234 206.414 20.8223ZM248.982 36.4668C246.521 36.4668 244.822 35.2363 244.822 33.3613C244.822 31.2227 246.814 29.8164 249.891 29.6992L255.691 29.5234L255.164 31.8965C254.607 34.5332 251.971 36.4668 248.982 36.4668ZM244.529 43.4688C248.514 43.4688 251.824 41.7695 253.523 39.2207H253.729L252.908 43H262.664L267.029 22.5508C267.146 21.877 267.264 20.793 267.264 19.9434C267.264 14.2305 261.814 10.334 253.699 10.334C245.73 10.334 239.9 14.4355 238.699 20.8809H247.957C248.543 18.918 250.359 17.7754 252.996 17.7754C255.691 17.7754 257.42 18.9766 257.42 20.8223C257.42 21.1152 257.391 21.3789 257.303 21.877L256.922 23.752L249.363 23.9863C240.516 24.25 235.096 28.2637 235.096 34.7969C235.096 39.8066 239.197 43.4688 244.529 43.4688ZM280.857 43.4688C285.135 43.4688 288.533 41.6816 290.789 38.3711H290.994L289.998 43H299.871L308.865 0.724609H298.787L295.418 16.5449H295.184C294.129 12.9121 290.643 10.627 285.926 10.627C276.785 10.627 269.959 19.3281 269.959 31.0176C269.959 38.6641 274.148 43.4688 280.857 43.4688ZM285.545 35.6758C282.381 35.6758 280.33 33.2148 280.33 29.4355C280.33 23.3125 283.758 18.6543 288.094 18.6543C291.287 18.6543 293.367 21.1445 293.367 24.8066C293.367 30.7539 289.822 35.6758 285.545 35.6758ZM323.074 35.9102C319.939 35.9102 317.918 33.2148 317.918 29.1719C317.918 22.873 321.199 18.1855 325.711 18.1855C328.816 18.1855 330.838 20.8809 330.838 24.9238C330.838 31.1348 327.498 35.9102 323.074 35.9102ZM326.15 10.334C315.428 10.334 307.693 18.3613 307.693 29.377C307.693 37.9902 313.699 43.7617 322.664 43.7617C333.387 43.7617 341.121 35.7344 341.121 24.7188C341.121 16.1348 335.115 10.334 326.15 10.334ZM341.971 43H352.078L355.682 26.2129C356.678 21.5254 359.432 19.2109 363.592 19.2109C365.408 19.2109 366.902 19.6504 368.191 20.2656L370.125 11.4473C368.982 10.9199 367.664 10.627 365.906 10.627C362.332 10.627 359.461 12.6777 357.908 15.6367H357.703L358.611 11.0957H348.797L341.971 43Z" fill="white"/>
</g>
<defs>
<filter id="filter0_d" x="0.339844" y="0.724609" width="369.785" height="46.0371" filterUnits="userSpaceOnUse" color-interpolation-filters="sRGB">
<feFlood flood-opacity="0" result="BackgroundImageFix"/>
<feColorMatrix in="SourceAlpha" type="matrix" values="0 0 0 0 0 0 0 0 0 0 0 0 0 0 0 0 0 0 127 0" result="hardAlpha"/>
<feOffset dy="3"/>
<feComposite in2="hardAlpha" operator="out"/>
<feColorMatrix type="matrix" values="0 0 0 0 0.0871875 0 0 0 0 0.675 0 0 0 0 0.481452 0 0 0 1 0"/>
<feBlend mode="normal" in2="BackgroundImageFix" result="effect1_dropShadow"/>
<feBlend mode="normal" in="SourceGraphic" in2="effect1_dropShadow" result="shape"/>
</filter>
</defs>
</svg>
